<?xml version="1.0" encoding="UTF-8" standalone="no"?>
<svg
   xmlns:dc="http://purl.org/dc/elements/1.1/"
   xmlns:cc="http://creativecommons.org/ns#"
   xmlns:rdf="http://www.w3.org/1999/02/22-rdf-syntax-ns#"
   xmlns:svg="http://www.w3.org/2000/svg"
   xmlns="http://www.w3.org/2000/svg"
   width="139.90407mm"
   height="147.20551mm"
   viewBox="0 0 139.90407 147.20551"
   version="1.1"
   id="svg5427">
  <defs
     id="defs5421">
    <mask
       id="mask-2-3-5-0"
       fill="#ffffff">
      <polygon
         id="use1885-0-6-4"
         points="0,106.00414 0,0.64969272 52.82253,0.64969272 52.82253,106.00414 "
         transform="scale(0.26458333)" />
    </mask>
  </defs>
  <metadata
     id="metadata5424">
    <rdf:RDF>
      <cc:Work
         rdf:about="">
        <dc:format>image/svg+xml</dc:format>
        <dc:type
           rdf:resource="http://purl.org/dc/dcmitype/StillImage" />
        <dc:title></dc:title>
      </cc:Work>
    </rdf:RDF>
  </metadata>
  <g
     id="layer9">
    <rect
       style="opacity:1;fill:#000000;fill-opacity:0.999943;stroke:#000000;stroke-width:0.155835;stroke-opacity:1"
       id="rect3904"
       width="139.90407"
       height="147.20551"
       x="5362.3501"
       y="948.70874" />
    <path
       d="m 5452.6059,1028.8719 c 0,4.3782 -3.5106,7.8889 -7.8889,7.8889 -4.3782,0 -7.8877,-3.5107 -7.8877,-7.8889 0,-4.3772 3.5497,-7.8879 7.8877,-7.8879 4.3391,0 7.8889,3.5499 7.8889,7.8879 m -35.4978,-7.8879 c -4.3391,0 -7.889,3.5499 -7.889,7.8879 0,4.3391 3.5499,7.8889 7.889,7.8889 4.338,0 7.8878,-3.5107 7.8878,-7.8889 0,-4.3772 -3.5095,-7.8879 -7.8878,-7.8879 m 57.1913,5.9167 v 11.8323 c 0,2.169 -1.7756,3.9445 -3.9446,3.9445 h -3.9444 v 3.9433 c 0,4.3783 -3.5106,7.8889 -7.8878,7.8889 h -55.219 a 7.8884134,7.8884134 0 0 1 -7.8889,-7.8889 v -3.9433 h -3.9445 c -2.169,0 -3.9433,-1.7755 -3.9433,-3.9445 v -11.8323 c 0,-2.1701 1.7743,-3.9444 3.9433,-3.9444 h 3.9445 c 0,-15.2647 12.3454,-27.6101 27.6101,-27.6101 h 3.9433 v -5.00882 c -2.3658,-1.34051 -3.9433,-3.90419 -3.9433,-6.82346 0,-4.33913 3.5497,-7.88888 7.8877,-7.88888 4.3392,0 7.889,3.54975 7.889,7.88888 0,2.91927 -1.5776,5.48295 -3.9445,6.82346 v 5.00882 h 3.9445 c 15.2635,0 27.6089,12.3454 27.6089,27.6101 h 3.9444 c 2.169,0 3.9446,1.7743 3.9446,3.9444 m -7.889,3.9434 h -7.8878 v -7.8878 c 0,-10.8864 -8.8359,-19.7212 -19.7211,-19.7212 h -15.7767 c -10.8864,0 -19.7212,8.8348 -19.7212,19.7212 v 7.8878 h -7.8889 v 3.9445 h 7.8889 v 11.8322 h 55.219 v -11.8322 h 7.8878 z"
       fill="currentColor"
       id="path4272"
       style="opacity:1;fill:#ffffff;fill-opacity:1;stroke-width:3.94422" />
    <path
       id="rect3904-4"
       style="opacity:1;fill:#000000;fill-opacity:0.999943;stroke:#000000;stroke-width:0.588983;stroke-opacity:1"
       d="M 0.29492188,0.29492188 V 556.66211 H 529.06641 V 0.29492188 Z M 273.27539,99.685547 c 16.40013,0 29.81641,13.416543 29.81641,29.816403 0,11.03346 -5.96244,20.72257 -14.90821,25.78907 v 18.93164 h 14.90821 c 57.68882,0 104.34765,46.66016 104.34765,104.35351 h 14.90821 c 8.19779,0 14.9082,6.7043 14.9082,14.90625 v 44.7207 c 0,8.1978 -6.71041,14.90821 -14.9082,14.90821 h -14.90821 v 14.90429 c 0,16.54791 -13.26876,29.81641 -29.8125,29.81641 H 168.92578 a 29.814476,29.814476 0 0 1 -29.8164,-29.81641 v -14.90429 h -14.90821 c -8.19779,0 -14.90429,-6.71041 -14.90429,-14.90821 v -44.7207 c 0,-8.20195 6.7065,-14.90625 14.90429,-14.90625 h 14.90821 c 0,-57.69335 46.66016,-104.35351 104.35351,-104.35351 h 14.9043 v -18.93164 c -8.94161,-5.0665 -14.9043,-14.75561 -14.9043,-25.78907 0,-16.39986 13.41691,-29.816403 29.8125,-29.816403 z m -29.8125,104.353513 c -41.14545,0 -74.53711,33.39166 -74.53711,74.53711 v 29.81055 h -29.8164 v 14.91016 h 29.8164 v 44.71874 h 208.70117 v -44.71874 h 29.8125 v -14.91016 h -29.8125 v -29.81055 c 0,-41.14545 -33.39424,-74.53711 -74.53515,-74.53711 z m -22.36328,67.08203 c 16.5479,0 29.8125,13.26876 29.8125,29.8125 0,16.54752 -13.41691,29.81641 -29.8125,29.81641 -16.39975,0 -29.81641,-13.41667 -29.81641,-29.81641 0,-16.39559 13.41666,-29.8125 29.81641,-29.8125 z m 104.34961,0 c 16.39975,0 29.8164,13.41691 29.8164,29.8125 0,16.54752 -13.2685,29.81641 -29.8164,29.81641 -16.54753,0 -29.8125,-13.26889 -29.8125,-29.81641 0,-16.54374 13.41691,-29.8125 29.8125,-29.8125 z"
       transform="scale(0.26458333)" />
  </g>
</svg>
