<?xml version="1.0" encoding="UTF-8" standalone="no"?>
<svg
   xmlns:dc="http://purl.org/dc/elements/1.1/"
   xmlns:cc="http://creativecommons.org/ns#"
   xmlns:rdf="http://www.w3.org/1999/02/22-rdf-syntax-ns#"
   xmlns:svg="http://www.w3.org/2000/svg"
   xmlns="http://www.w3.org/2000/svg"
   width="139.90407mm"
   height="147.20551mm"
   viewBox="0 0 139.90407 147.20551"
   version="1.1"
   id="svg5427">
  <defs
     id="defs5421">
    <mask
       id="mask-2-3-5-0"
       fill="#ffffff">
      <polygon
         id="use1885-0-6-4"
         points="0,106.00414 0,0.64969272 52.82253,0.64969272 52.82253,106.00414 "
         transform="scale(0.26458333)" />
    </mask>
  </defs>
  <metadata
     id="metadata5424">
    <rdf:RDF>
      <cc:Work
         rdf:about="">
        <dc:format>image/svg+xml</dc:format>
        <dc:type
           rdf:resource="http://purl.org/dc/dcmitype/StillImage" />
        <dc:title></dc:title>
      </cc:Work>
    </rdf:RDF>
  </metadata>
  <g
     id="layer9">
    <rect
       style="opacity:1;fill:#000000;fill-opacity:0.999943;stroke:#000000;stroke-width:0.155835;stroke-opacity:1"
       id="rect3904"
       width="139.90407"
       height="147.20551"
       x="5362.3501"
       y="948.70874" />
    <path
       d="m 5452.6059,1028.8719 c 0,4.3782 -3.5106,7.8889 -7.8889,7.8889 -4.3782,0 -7.8877,-3.5107 -7.8877,-7.8889 0,-4.3772 3.5497,-7.8879 7.8877,-7.8879 4.3391,0 7.8889,3.5499 7.8889,7.8879 m -35.4978,-7.8879 c -4.3391,0 -7.889,3.5499 -7.889,7.8879 0,4.3391 3.5499,7.8889 7.889,7.8889 4.338,0 7.8878,-3.5107 7.8878,-7.8889 0,-4.3772 -3.5095,-7.8879 -7.8878,-7.8879 m 57.1913,5.9167 v 11.8323 c 0,2.169 -1.7756,3.9445 -3.9446,3.9445 h -3.9444 v 3.9433 c 0,4.3783 -3.5106,7.8889 -7.8878,7.8889 h -55.219 a 7.8884134,7.8884134 0 0 1 -7.8889,-7.8889 v -3.9433 h -3.9445 c -2.169,0 -3.9433,-1.7755 -3.9433,-3.9445 v -11.8323 c 0,-2.1701 1.7743,-3.9444 3.9433,-3.9444 h 3.9445 c 0,-15.2647 12.3454,-27.6101 27.6101,-27.6101 h 3.9433 v -5.00882 c -2.3658,-1.34051 -3.9433,-3.90419 -3.9433,-6.82346 0,-4.33913 3.5497,-7.88888 7.8877,-7.88888 4.3392,0 7.889,3.54975 7.889,7.88888 0,2.91927 -1.5776,5.48295 -3.9445,6.82346 v 5.00882 h 3.9445 c 15.2635,0 27.6089,12.3454 27.6089,27.6101 h 3.9444 c 2.169,0 3.9446,1.7743 3.9446,3.9444 m -7.889,3.9434 h -7.8878 v -7.8878 c 0,-10.8864 -8.8359,-19.7212 -19.7211,-19.7212 h -15.7767 c -10.8864,0 -19.7212,8.8348 -19.7212,19.7212 v 7.8878 h -7.8889 v 3.9445 h 7.8889 v 11.8322 h 55.219 v -11.8322 h 7.8878 z"
       fill="currentColor"
       id="path4272"
       style="opacity:1;fill:#ffffff;fill-opacity:1;stroke-width:3.94422" />
    <path
       id="rect4406"
       style="opacity:1;fill:#000000;fill-opacity:0.999943;stroke:#000000;stroke-width:0.588983;stroke-opacity:1"
       d="M 0.29492188 0.29492188 L 0.29492188 556.66211 L 529.06641 556.66211 L 529.06641 0.29492188 L 0.29492188 0.29492188 z M 282.07617 128.47656 L 285.24414 131.6582 L 348.88281 195.29688 L 352.04883 198.48047 L 352.04883 234.54297 L 330.83594 234.54297 L 330.83594 213.33008 L 267.19531 213.33008 L 267.19531 149.69141 L 161.13281 149.69141 L 161.13281 383.0332 L 309.62109 383.0332 L 309.62109 404.24609 L 139.91797 404.24609 L 139.91797 128.47852 L 282.07617 128.47656 z M 288.41016 164.54102 L 288.41016 192.11719 L 315.98633 192.11719 L 288.41016 164.54102 z M 182.3418 234.54297 L 309.62109 234.54297 L 309.62109 255.75586 L 182.3418 255.75586 L 182.3418 234.54297 z M 362.65625 255.75586 L 383.86719 255.75586 L 383.86719 276.96875 L 405.08203 276.96875 L 405.08203 298.18164 L 367.95703 298.18164 C 359.4746 298.18164 352.04883 305.60676 352.04883 314.0918 C 352.04883 322.57721 359.4746 330.00195 367.95703 330.00195 L 378.5625 330.00195 C 399.77661 330.00195 415.6875 345.9097 415.6875 367.12305 C 415.6875 386.21457 401.89856 401.06335 383.86719 404.24609 L 383.86719 425.45898 L 362.65625 425.45898 L 362.65625 404.24609 L 341.44141 404.24609 L 341.44141 383.0332 L 378.5625 383.0332 C 387.04905 383.0332 394.47461 375.60809 394.47461 367.12305 C 394.47461 358.63764 387.04905 351.21484 378.5625 351.21484 L 367.95703 351.21484 C 346.7467 351.21484 330.83594 335.30515 330.83594 314.0918 C 330.83594 295.00027 344.62488 280.15149 362.65625 276.96875 L 362.65625 255.75586 z M 182.3418 287.57422 L 256.58984 287.57422 L 256.58984 308.78711 L 182.3418 308.78711 L 182.3418 287.57422 z M 277.80273 287.57422 L 309.62109 287.57422 L 309.62109 308.78711 L 277.80273 308.78711 L 277.80273 287.57422 z M 182.3418 330.00195 L 256.58984 330.00195 L 256.58984 351.21484 L 182.3418 351.21484 L 182.3418 330.00195 z M 277.80273 330.00195 L 309.62109 330.00195 L 309.62109 351.21484 L 277.80273 351.21484 L 277.80273 330.00195 z "
       transform="scale(0.26458333)" />
  </g>
</svg>
