<?xml version="1.0" encoding="UTF-8" standalone="no"?>
<svg
   xmlns:dc="http://purl.org/dc/elements/1.1/"
   xmlns:cc="http://creativecommons.org/ns#"
   xmlns:rdf="http://www.w3.org/1999/02/22-rdf-syntax-ns#"
   xmlns:svg="http://www.w3.org/2000/svg"
   xmlns="http://www.w3.org/2000/svg"
   width="139.90407mm"
   height="147.20551mm"
   viewBox="0 0 139.90407 147.20551"
   version="1.1"
   id="svg5427">
  <defs
     id="defs5421">
    <mask
       id="mask-2-3-5-0"
       fill="#ffffff">
      <polygon
         id="use1885-0-6-4"
         points="0,106.00414 0,0.64969272 52.82253,0.64969272 52.82253,106.00414 "
         transform="scale(0.26458333)" />
    </mask>
  </defs>
  <metadata
     id="metadata5424">
    <rdf:RDF>
      <cc:Work
         rdf:about="">
        <dc:format>image/svg+xml</dc:format>
        <dc:type
           rdf:resource="http://purl.org/dc/dcmitype/StillImage" />
        <dc:title></dc:title>
      </cc:Work>
    </rdf:RDF>
  </metadata>
  <g
     id="layer5">
    <path
       id="rect7145"
       style="opacity:1;fill:#000000;stroke-width:12.5714"
       d="M 0.984375 0 L 0.984375 556.36719 L 528.77148 556.36719 L 528.77148 0 L 0.984375 0 z M 199.70508 152.08203 L 199.8457 188.11719 C 228.17028 190.48816 250.63009 199.11154 253.22852 225.08203 L 253.23047 225.08594 C 255.16447 244.0891 247.25724 255.53099 234.56445 262.05664 C 255.51778 267.00245 268.68288 279.39409 266.20312 307.28906 C 263.13189 341.93241 237.35719 351.32115 200.48828 353.58008 L 200.62109 389.96289 L 178.68555 390.04883 L 178.55859 354.1543 C 172.87457 354.1823 167.04983 354.15629 161.0332 354.05469 L 161.17383 390.11719 L 139.26172 390.19727 L 139.11133 353.75195 C 133.97949 353.73795 128.75271 353.67024 123.43945 353.68164 L 94.894531 353.79492 L 99.152344 327.58008 C 99.152344 327.58008 115.37356 327.77322 115.09766 327.52344 C 121.30514 327.48894 122.92957 323.02482 123.31055 320.22656 L 123.0957 262.71484 C 123.89881 262.70424 124.68461 262.71082 125.41406 262.70312 C 124.50693 262.58559 123.7015 262.54726 123.09375 262.55859 L 122.93164 221.50586 C 122.07218 217.05822 119.16225 211.90934 110.27734 211.94336 C 110.54606 211.64364 94.347656 212.01563 94.347656 212.01562 L 94.25 188.58789 L 124.50391 188.48047 L 124.50391 188.58789 C 129.05181 188.56829 133.71429 188.45909 138.46289 188.3457 L 138.33008 152.31836 L 160.25391 152.23438 L 160.39062 187.55469 C 166.24701 187.41636 172.14021 187.27854 177.90625 187.25586 L 177.76953 152.16797 L 199.70508 152.08203 z M 275.35156 188.01367 L 345.70703 188.01367 L 345.70703 198.71484 L 337.05469 198.71484 C 328.17482 198.71484 326.125 199.39889 326.125 201.67578 C 326.125 202.81422 327.03704 205.0903 328.63086 207.36719 L 358.91406 251.08398 L 383.50391 215.33789 C 386.00849 211.69486 386.69141 210.10028 386.69141 207.5957 C 386.69141 201.4481 381.90955 198.71484 370.98047 198.71484 L 367.79297 198.71484 L 367.79297 188.01367 L 430.4082 188.01367 L 430.4082 198.71484 L 426.76367 198.71484 C 414.0131 199.17022 407.41014 203.72554 395.57031 220.11914 L 365.28906 261.33008 L 413.10352 329.86523 C 420.38954 340.7943 421.75461 341.4774 437.00977 341.70508 L 439.74219 341.70508 L 439.74219 352.40625 L 365.06055 352.40625 L 365.06055 341.70508 L 371.43555 341.70508 C 385.77994 341.47739 386.69141 341.24849 386.69141 337.60547 C 386.69141 335.78395 385.77965 333.27914 383.73047 330.54688 L 349.80469 282.50586 L 323.39453 320.75781 C 321.11764 324.17315 319.75 327.81543 319.75 330.77539 C 319.75 337.60606 325.44322 341.70508 334.55078 341.70508 L 340.24219 341.70508 L 340.24219 352.40625 L 275.57812 352.40625 L 275.57812 341.70508 L 276.49023 341.70508 C 288.55775 341.47739 296.29809 336.92193 306.31641 323.48828 L 343.20312 272.25977 L 298.34766 207.36719 C 293.3385 199.85345 291.51786 198.94252 279.22266 198.71484 L 275.35156 198.71484 L 275.35156 188.01367 z M 174.24219 213.06836 C 168.85415 213.05466 164.10139 213.31976 161.00586 213.33203 L 161.17578 257.12891 C 173.55827 257.08041 212.46384 259.82138 212.37695 235.04102 L 212.375 235.04102 C 212.2968 215.65641 190.40631 213.1094 174.24219 213.06836 z M 177.14258 278.94922 C 170.68104 278.93072 164.97936 279.22078 161.26172 279.23438 L 161.44336 327.52344 C 176.30937 327.45164 222.95701 330.37088 222.83984 303.13281 C 222.75904 281.82628 196.5272 279.00477 177.14258 278.94922 z "
       transform="scale(0.26458333)" />
    <g
       aria-label="X"
       id="text4242"
       style="font-style:normal;font-variant:normal;font-weight:normal;font-stretch:normal;font-size:60.2427px;line-height:1.15;font-family:C059;-inkscape-font-specification:'C059, Normal';font-variant-ligatures:normal;font-variant-caps:normal;font-variant-numeric:normal;font-variant-east-asian:normal;word-spacing:0px;opacity:1;fill:#ffffff;fill-opacity:1;stroke:#ffffff;stroke-width:2.106;stroke-miterlimit:4;stroke-dasharray:none;stroke-opacity:1" />
  </g>
</svg>
