<?xml version="1.0" encoding="UTF-8" standalone="no"?>
<svg
   xmlns:dc="http://purl.org/dc/elements/1.1/"
   xmlns:cc="http://creativecommons.org/ns#"
   xmlns:rdf="http://www.w3.org/1999/02/22-rdf-syntax-ns#"
   xmlns:svg="http://www.w3.org/2000/svg"
   xmlns="http://www.w3.org/2000/svg"
   width="139.90407mm"
   height="147.20551mm"
   viewBox="0 0 139.90407 147.20551"
   version="1.1"
   id="svg5427">
  <defs
     id="defs5421" />
  <metadata
     id="metadata5424">
    <rdf:RDF>
      <cc:Work
         rdf:about="">
        <dc:format>image/svg+xml</dc:format>
        <dc:type
           rdf:resource="http://purl.org/dc/dcmitype/StillImage" />
        <dc:title></dc:title>
      </cc:Work>
    </rdf:RDF>
  </metadata>
  <g
     id="layer1"
     transform="translate(-24.542013,67.55513)">
    <path
       id="rect3752"
       style="opacity:1;fill:#000000;fill-opacity:0.999943;stroke:none;stroke-width:8.14866;stroke-miterlimit:4;stroke-dasharray:none;stroke-opacity:1"
       d="M 0 0 L 0 556.36719 L 528.77148 556.36719 L 528.77148 0 L 0 0 z M 249.40234 98.751953 L 279.91016 106.36133 L 267.65039 155.51367 C 275.84138 157.38488 284.08467 159.27043 292.10938 161.26953 L 304.2832 112.4375 L 334.81055 120.04688 L 322.30664 170.19922 C 360.85102 183.47606 389.0389 203.37768 383.5 240.40039 L 383.50781 240.41016 C 379.50038 267.51201 364.47733 280.63209 344.53125 285.23242 C 371.91997 299.49178 385.8568 321.36034 372.58008 359.26953 C 356.10285 406.35256 316.96012 410.32331 264.9043 400.47266 L 252.26953 451.10352 L 221.74219 443.49414 L 234.21094 393.54297 C 226.29812 391.57898 218.21175 389.49112 209.88281 387.23047 L 197.37109 437.41797 L 166.87695 429.81055 L 179.51172 379.08398 C 172.38164 377.25661 165.13892 375.32262 157.74805 373.4668 L 118.02148 363.56445 L 133.17773 328.61914 C 133.17773 328.61914 155.66004 334.60263 155.36523 334.1582 C 164.00749 336.29737 167.84183 330.66265 169.35742 326.90625 L 189.32031 246.86914 C 190.44057 247.13632 191.5298 247.4235 192.54688 247.66992 C 191.32797 247.1855 190.22192 246.85001 189.37305 246.65234 L 203.61523 189.51953 C 203.98789 183.03315 201.75302 174.85058 189.38867 171.76562 C 189.86792 171.44372 167.21875 166.25195 167.21875 166.25195 L 175.33984 133.64648 L 217.43945 144.1582 L 217.39453 144.30664 C 223.72486 145.88111 230.24653 147.37128 236.88867 148.88672 L 249.40234 98.751953 z M 259.42578 191.57031 L 244.22852 252.52148 C 261.46128 256.8173 314.58555 274.33702 323.19531 239.85352 C 332.15733 203.88231 276.65816 195.86465 259.42578 191.57031 z M 236.55859 283.2832 L 219.79492 350.48633 C 240.48859 355.62471 304.31819 376.11867 313.75 338.20703 C 323.61041 298.67192 257.25264 288.44729 236.55859 283.2832 z "
       transform="matrix(0.26458333,0,0,0.26458333,24.542013,-67.55513)" />
  </g>
</svg>
