<?xml version="1.0" encoding="UTF-8" standalone="no"?>
<svg
   xmlns:dc="http://purl.org/dc/elements/1.1/"
   xmlns:cc="http://creativecommons.org/ns#"
   xmlns:rdf="http://www.w3.org/1999/02/22-rdf-syntax-ns#"
   xmlns:svg="http://www.w3.org/2000/svg"
   xmlns="http://www.w3.org/2000/svg"
   width="139.90407mm"
   height="147.20551mm"
   viewBox="0 0 139.90407 147.20551"
   version="1.1"
   id="svg5427">
  <defs
     id="defs5421">
    <mask
       id="mask-2-3-5-0"
       fill="#ffffff">
      <polygon
         id="use1885-0-6-4"
         points="0,106.00414 0,0.64969272 52.82253,0.64969272 52.82253,106.00414 "
         transform="scale(0.26458333)" />
    </mask>
  </defs>
  <metadata
     id="metadata5424">
    <rdf:RDF>
      <cc:Work
         rdf:about="">
        <dc:format>image/svg+xml</dc:format>
        <dc:type
           rdf:resource="http://purl.org/dc/dcmitype/StillImage" />
        <dc:title></dc:title>
      </cc:Work>
    </rdf:RDF>
  </metadata>
  <g
     id="layer11"
     style="display:inline">
    <rect
       style="opacity:1;fill:#000000;fill-opacity:0.999943;stroke:#000000;stroke-width:0.155835;stroke-opacity:1"
       id="rect3930"
       width="139.90407"
       height="147.20551"
       x="4996.3389"
       y="1315.2728" />
    <text
       xml:space="preserve"
       style="font-style:normal;font-variant:normal;font-weight:normal;font-stretch:normal;font-size:33.7682px;line-height:1.25;font-family:Roboto;-inkscape-font-specification:'Roboto, Normal';font-variant-ligatures:normal;font-variant-caps:normal;font-variant-numeric:normal;font-variant-east-asian:normal;word-spacing:0px;opacity:1;fill:#f8f542;fill-opacity:1;stroke-width:0.844211"
       x="5014.0952"
       y="1386.7435"
       id="text3946"><tspan
         x="5014.0952"
         y="1386.7435"
         style="font-style:normal;font-variant:normal;font-weight:normal;font-stretch:normal;font-size:33.7682px;font-family:Roboto;-inkscape-font-specification:'Roboto, Normal';font-variant-ligatures:normal;font-variant-caps:normal;font-variant-numeric:normal;font-variant-east-asian:normal;fill:#f8f542;fill-opacity:1;stroke-width:0.844211"
         id="tspan3944"><tspan
   style="font-style:normal;font-variant:normal;font-weight:normal;font-stretch:normal;font-size:33.7682px;font-family:Roboto;-inkscape-font-specification:'Roboto, Normal';font-variant-ligatures:normal;font-variant-caps:normal;font-variant-numeric:normal;font-variant-east-asian:normal;fill:#ffffff;fill-opacity:1;stroke-width:0.844211"
   id="tspan3942">coin</tspan>os</tspan></text>
    <text
       xml:space="preserve"
       style="font-style:normal;font-variant:normal;font-weight:normal;font-stretch:normal;font-size:33.7682px;line-height:1.25;font-family:Roboto;-inkscape-font-specification:'Roboto, Normal';font-variant-ligatures:normal;font-variant-caps:normal;font-variant-numeric:normal;font-variant-east-asian:normal;word-spacing:0px;opacity:1;fill:#f8f542;fill-opacity:1;stroke-width:0.844211"
       x="5068.4097"
       y="1417.9178"
       id="text3950"><tspan
         x="5068.4097"
         y="1417.9178"
         style="font-style:normal;font-variant:normal;font-weight:normal;font-stretch:normal;font-size:33.7682px;font-family:Roboto;-inkscape-font-specification:'Roboto, Normal';font-variant-ligatures:normal;font-variant-caps:normal;font-variant-numeric:normal;font-variant-east-asian:normal;fill:#f8f542;fill-opacity:1;stroke-width:0.844211"
         id="tspan3948">api</tspan></text>
    <rect
       style="opacity:1;fill:#000000;fill-opacity:0.999943;stroke:#000000;stroke-width:0.155835;stroke-opacity:1"
       id="rect3930-9"
       width="139.90407"
       height="147.20551"
       x="0.077917501"
       y="0.077917501" />
    <g
       aria-label="coinos"
       id="text3946-6"
       style="font-style:normal;font-variant:normal;font-weight:normal;font-stretch:normal;font-size:33.7682px;line-height:1.25;font-family:Roboto;-inkscape-font-specification:'Roboto, Normal';font-variant-ligatures:normal;font-variant-caps:normal;font-variant-numeric:normal;font-variant-east-asian:normal;word-spacing:0px;opacity:1;fill:#f8f542;fill-opacity:1;stroke-width:0.844211">
      <path
         d="m 27.220677,69.310725 q 1.63235,0 2.85249,-0.989302 1.22014,-0.989303 1.352047,-2.473257 h 2.885466 q -0.08244,1.533419 -1.055256,2.918443 -0.972815,1.385024 -2.605164,2.209443 -1.615861,0.824419 -3.429583,0.824419 -3.643932,0 -5.803909,-2.423792 -2.143489,-2.44028 -2.143489,-6.661305 v -0.51114 q 0,-2.605164 0.956325,-4.633234 0.956326,-2.028071 2.737071,-3.149281 1.797234,-1.121209 4.237514,-1.121209 3.000885,0 4.97949,1.797233 1.995094,1.797233 2.127001,4.666211 h -2.885466 q -0.131907,-1.73128 -1.319071,-2.836001 -1.170674,-1.12121 -2.901954,-1.12121 -2.324862,0 -3.610955,1.681815 -1.269605,1.665326 -1.269605,4.831095 v 0.577093 q 0,3.083327 1.269605,4.748653 1.269605,1.665326 3.627443,1.665326 z"
         style="font-style:normal;font-variant:normal;font-weight:normal;font-stretch:normal;font-size:33.7682px;font-family:Roboto;-inkscape-font-specification:'Roboto, Normal';font-variant-ligatures:normal;font-variant-caps:normal;font-variant-numeric:normal;font-variant-east-asian:normal;fill:#ffffff;fill-opacity:1;stroke-width:0.844211"
         id="path6893" />
      <path
         d="m 36.932333,62.385606 q 0,-2.621652 1.022279,-4.715676 1.038768,-2.094024 2.868978,-3.231722 1.846699,-1.137698 4.204537,-1.137698 3.643932,0 5.886351,2.522722 2.258908,2.522722 2.258908,6.71077 v 0.214349 q 0,2.605164 -1.005791,4.682699 -0.989303,2.061048 -2.85249,3.215234 -1.846698,1.154187 -4.254001,1.154187 -3.627444,0 -5.886352,-2.522722 -2.242419,-2.522722 -2.242419,-6.677794 z m 3.066838,0.362745 q 0,2.967908 1.368536,4.765141 1.385024,1.797233 3.693397,1.797233 2.324861,0 3.693397,-1.813721 1.368535,-1.83021 1.368535,-5.111398 0,-2.934931 -1.401512,-4.748653 -1.385024,-1.83021 -3.693397,-1.83021 -2.258908,0 -3.643932,1.797233 -1.385024,1.797234 -1.385024,5.144375 z"
         style="font-style:normal;font-variant:normal;font-weight:normal;font-stretch:normal;font-size:33.7682px;font-family:Roboto;-inkscape-font-specification:'Roboto, Normal';font-variant-ligatures:normal;font-variant-caps:normal;font-variant-numeric:normal;font-variant-east-asian:normal;fill:#ffffff;fill-opacity:1;stroke-width:0.844211"
         id="path6895" />
      <path
         d="m 60.312852,71.470703 h -3.05035 V 53.630277 h 3.05035 z M 57.015177,48.898112 q 0,-0.741977 0.445186,-1.253116 0.461675,-0.51114 1.352047,-0.51114 0.890372,0 1.352047,0.51114 0.461675,0.511139 0.461675,1.253116 0,0.741978 -0.461675,1.236629 -0.461675,0.494651 -1.352047,0.494651 -0.890372,0 -1.352047,-0.494651 -0.445186,-0.494651 -0.445186,-1.236629 z"
         style="font-style:normal;font-variant:normal;font-weight:normal;font-stretch:normal;font-size:33.7682px;font-family:Roboto;-inkscape-font-specification:'Roboto, Normal';font-variant-ligatures:normal;font-variant-caps:normal;font-variant-numeric:normal;font-variant-east-asian:normal;fill:#ffffff;fill-opacity:1;stroke-width:0.844211"
         id="path6897" />
      <path
         d="m 68.07888,53.630277 0.09893,2.24242 q 2.044559,-2.572187 5.342235,-2.572187 5.655514,0 5.704979,6.381002 v 11.789191 h -3.05035 V 59.665024 q -0.01649,-1.92914 -0.890373,-2.85249 -0.857396,-0.923349 -2.687606,-0.923349 -1.483954,0 -2.605163,0.791442 -1.12121,0.791442 -1.747769,2.077536 v 12.71254 h -3.05035 V 53.630277 Z"
         style="font-style:normal;font-variant:normal;font-weight:normal;font-stretch:normal;font-size:33.7682px;font-family:Roboto;-inkscape-font-specification:'Roboto, Normal';font-variant-ligatures:normal;font-variant-caps:normal;font-variant-numeric:normal;font-variant-east-asian:normal;fill:#ffffff;fill-opacity:1;stroke-width:0.844211"
         id="path6899" />
      <path
         d="m 83.017353,62.385606 q 0,-2.621652 1.02228,-4.715676 1.038767,-2.094024 2.868977,-3.231722 1.846699,-1.137698 4.204537,-1.137698 3.643932,0 5.886351,2.522722 2.258908,2.522722 2.258908,6.71077 v 0.214349 q 0,2.605164 -1.005791,4.682699 -0.989303,2.061048 -2.852489,3.215234 -1.846699,1.154187 -4.254002,1.154187 -3.627444,0 -5.886351,-2.522722 -2.24242,-2.522722 -2.24242,-6.677794 z m 3.066838,0.362745 q 0,2.967908 1.368536,4.765141 1.385024,1.797233 3.693397,1.797233 2.324861,0 3.693397,-1.813721 1.368535,-1.83021 1.368535,-5.111398 0,-2.934931 -1.401512,-4.748653 -1.385024,-1.83021 -3.693397,-1.83021 -2.258908,0 -3.643932,1.797233 -1.385024,1.797234 -1.385024,5.144375 z"
         style="font-style:normal;font-variant:normal;font-weight:normal;font-stretch:normal;font-size:33.7682px;font-family:Roboto;-inkscape-font-specification:'Roboto, Normal';font-variant-ligatures:normal;font-variant-caps:normal;font-variant-numeric:normal;font-variant-east-asian:normal;fill:#f8f542;fill-opacity:1;stroke-width:0.844211"
         id="path6901" />
      <path
         d="m 113.47139,66.738538 q 0,-1.236628 -0.93984,-1.912652 -0.92335,-0.692511 -3.24821,-1.187163 -2.30837,-0.494651 -3.67691,-1.187163 -1.35204,-0.692512 -2.01158,-1.648838 -0.64305,-0.956326 -0.64305,-2.275396 0,-2.192955 1.8467,-3.709886 1.86319,-1.51693 4.74865,-1.51693 3.03387,0 4.91354,1.566396 1.89617,1.566396 1.89617,4.006676 h -3.06684 q 0,-1.253117 -1.07175,-2.159978 -1.05525,-0.906861 -2.67112,-0.906861 -1.66532,0 -2.60516,0.725489 -0.93984,0.725489 -0.93984,1.896163 0,1.104722 0.87389,1.665327 0.87388,0.560605 3.14928,1.071744 2.29188,0.51114 3.70988,1.22014 1.418,0.709001 2.09403,1.714792 0.69251,0.989303 0.69251,2.423791 0,2.390815 -1.91265,3.841793 -1.91265,1.434489 -4.963,1.434489 -2.14349,0 -3.79233,-0.758466 -1.64884,-0.758465 -2.58868,-2.110512 -0.92335,-1.368536 -0.92335,-2.95142 h 3.05035 q 0.0824,1.533419 1.22014,2.44028 1.15419,0.890372 3.03387,0.890372 1.73127,0 2.77004,-0.692511 1.05526,-0.709001 1.05526,-1.879676 z"
         style="font-style:normal;font-variant:normal;font-weight:normal;font-stretch:normal;font-size:33.7682px;font-family:Roboto;-inkscape-font-specification:'Roboto, Normal';font-variant-ligatures:normal;font-variant-caps:normal;font-variant-numeric:normal;font-variant-east-asian:normal;fill:#f8f542;fill-opacity:1;stroke-width:0.844211"
         id="path6903" />
    </g>
    <g
       aria-label="api"
       id="text3950-2"
       style="font-style:normal;font-variant:normal;font-weight:normal;font-stretch:normal;font-size:33.7682px;line-height:1.25;font-family:Roboto;-inkscape-font-specification:'Roboto, Normal';font-variant-ligatures:normal;font-variant-caps:normal;font-variant-numeric:normal;font-variant-east-asian:normal;word-spacing:0px;opacity:1;fill:#f8f542;fill-opacity:1;stroke-width:0.844211">
      <path
         d="m 85.393426,102.64502 q -0.263814,-0.52763 -0.428698,-1.87968 -2.127001,2.20945 -5.07842,2.20945 -2.638141,0 -4.336444,-1.48396 -1.681815,-1.500439 -1.681815,-3.792324 0,-2.786536 2.110513,-4.319955 2.127001,-1.549908 5.968793,-1.549908 h 2.967908 v -1.401512 q 0,-1.599373 -0.956326,-2.539211 -0.956326,-0.956326 -2.819513,-0.956326 -1.632349,0 -2.73707,0.824419 -1.104722,0.824419 -1.104722,1.995094 h -3.066838 q 0,-1.335558 0.939837,-2.572187 0.956326,-1.253117 2.572187,-1.978605 1.63235,-0.725489 3.577979,-0.725489 3.083326,0 4.831095,1.549908 1.747768,1.533419 1.813721,4.237513 v 8.211213 q 0,2.45677 0.626559,3.90775 v 0.26381 z m -5.061932,-2.32486 q 1.434489,0 2.720582,-0.741979 1.286094,-0.741977 1.863187,-1.92914 v -3.66042 h -2.390815 q -5.606049,0 -5.606049,3.281187 0,1.434489 0.956326,2.24242 0.956326,0.807932 2.456769,0.807932 z"
         style="font-style:normal;font-variant:normal;font-weight:normal;font-stretch:normal;font-size:33.7682px;font-family:Roboto;-inkscape-font-specification:'Roboto, Normal';font-variant-ligatures:normal;font-variant-caps:normal;font-variant-numeric:normal;font-variant-east-asian:normal;fill:#f8f542;fill-opacity:1;stroke-width:0.844211"
         id="path6906" />
      <path
         d="m 107.81762,93.922667 q 0,4.07263 -1.86319,6.562373 -1.86318,2.48975 -5.04544,2.48975 -3.248211,0 -5.111397,-2.06105 v 8.59045 h -3.05035 V 84.804594 h 2.786536 l 0.148395,1.978605 q 1.863187,-2.308373 5.177346,-2.308373 3.21524,0 5.07843,2.423792 1.87967,2.423791 1.87967,6.743747 z m -3.05035,-0.346256 q 0,-3.017373 -1.28609,-4.765141 -1.2861,-1.747768 -3.528516,-1.747768 -2.770048,0 -4.155071,2.456768 v 8.524492 q 1.368535,2.440278 4.188048,2.440278 2.192959,0 3.479049,-1.731278 1.30258,-1.747768 1.30258,-5.177351 z"
         style="font-style:normal;font-variant:normal;font-weight:normal;font-stretch:normal;font-size:33.7682px;font-family:Roboto;-inkscape-font-specification:'Roboto, Normal';font-variant-ligatures:normal;font-variant-caps:normal;font-variant-numeric:normal;font-variant-east-asian:normal;fill:#f8f542;fill-opacity:1;stroke-width:0.844211"
         id="path6908" />
      <path
         d="m 115.00656,102.64502 h -3.05035 V 84.804594 h 3.05035 z m -3.29768,-22.572591 q 0,-0.741977 0.44519,-1.253117 0.46167,-0.51114 1.35204,-0.51114 0.89038,0 1.35205,0.51114 0.46167,0.51114 0.46167,1.253117 0,0.741977 -0.46167,1.236628 -0.46167,0.494652 -1.35205,0.494652 -0.89037,0 -1.35204,-0.494652 -0.44519,-0.494651 -0.44519,-1.236628 z"
         style="font-style:normal;font-variant:normal;font-weight:normal;font-stretch:normal;font-size:33.7682px;font-family:Roboto;-inkscape-font-specification:'Roboto, Normal';font-variant-ligatures:normal;font-variant-caps:normal;font-variant-numeric:normal;font-variant-east-asian:normal;fill:#f8f542;fill-opacity:1;stroke-width:0.844211"
         id="path6910" />
    </g>
  </g>
</svg>
