<?xml version="1.0" encoding="UTF-8" standalone="no"?>
<svg
   xmlns:dc="http://purl.org/dc/elements/1.1/"
   xmlns:cc="http://creativecommons.org/ns#"
   xmlns:rdf="http://www.w3.org/1999/02/22-rdf-syntax-ns#"
   xmlns:svg="http://www.w3.org/2000/svg"
   xmlns="http://www.w3.org/2000/svg"
   xmlns:sodipodi="http://sodipodi.sourceforge.net/DTD/sodipodi-0.dtd"
   xmlns:inkscape="http://www.inkscape.org/namespaces/inkscape"
   width="139.90407mm"
   height="147.20551mm"
   viewBox="0 0 139.90407 147.20551"
   version="1.1"
   id="svg5427"
   sodipodi:docname="Crypto-Wallet.svg"
   inkscape:version="1.0 (3c411ce, 2020-09-06)">
  <sodipodi:namedview
     pagecolor="#ffffff"
     bordercolor="#666666"
     borderopacity="1"
     objecttolerance="10"
     gridtolerance="10"
     guidetolerance="10"
     inkscape:pageopacity="0"
     inkscape:pageshadow="2"
     inkscape:window-width="1920"
     inkscape:window-height="1043"
     id="namedview7642"
     showgrid="false"
     inkscape:zoom="1.5978654"
     inkscape:cx="264.38564"
     inkscape:cy="278.18363"
     inkscape:window-x="0"
     inkscape:window-y="0"
     inkscape:window-maximized="1"
     inkscape:current-layer="svg5427" />
  <defs
     id="defs5421">
    <mask
       id="mask-2-3-5-0"
       fill="#ffffff">
      <polygon
         id="use1885-0-6-4"
         points="0,106.00414 0,0.64969272 52.82253,0.64969272 52.82253,106.00414 "
         transform="scale(0.26458333)" />
    </mask>
  </defs>
  <metadata
     id="metadata5424">
    <rdf:RDF>
      <cc:Work
         rdf:about="">
        <dc:format>image/svg+xml</dc:format>
        <dc:type
           rdf:resource="http://purl.org/dc/dcmitype/StillImage" />
        <dc:title></dc:title>
      </cc:Work>
    </rdf:RDF>
  </metadata>
  <g
     id="layer4">
    <path
       id="rect4017"
       style="opacity:1;fill:#000000;fill-opacity:0.999943;stroke:none;stroke-width:8.14866;stroke-miterlimit:4;stroke-dasharray:none;stroke-opacity:1"
       d="M 0,0 V 556.36719 H 528.77148 V 0 Z m 205.69531,121.60547 v 42.61719 42.61914 h 10.71289 10.71289 v 10.46289 10.46484 h 20.92774 20.92773 V 217.30469 206.8418 H 258.51367 248.04883 V 185.66406 164.48828 H 237.33594 226.62305 V 143.0625 121.63672 h 42.60351 42.60156 v 21.42578 21.42578 h -10.46289 -10.46484 v 10.46289 10.46485 h 10.46484 10.46289 v 21.16992 21.17187 l 21.30079,0.13086 21.30078,0.12891 0.13476,10.58789 0.13477,10.58984 h 10.45312 10.45508 v -10.71289 -10.71289 h 10.71289 10.71289 v 10.71289 10.71289 h 10.71289 10.71289 v 10.71289 10.71289 H 407.74609 397.0332 v 10.45313 10.45312 l 10.58789,0.13477 10.58789,0.13477 v 10.71289 10.71289 H 407.49609 396.7832 l -0.13476,-10.58789 -0.13477,-10.58789 h -10.45312 -10.45313 v 10.71289 10.71289 H 343.7168 311.82812 v 31.63867 31.64062 h -10.46289 -10.46484 v 10.46485 10.46289 h 10.46484 10.46289 v 10.96289 10.96094 h -42.36914 c -33.91324,0 -42.41784,-0.12743 -42.61328,-0.63672 -0.13417,-0.34999 -0.18383,-5.22531 -0.10937,-10.83594 l 0.13672,-10.20117 21.05078,-0.13086 21.05273,-0.12891 v -10.45898 -10.45899 h 10.71289 10.71289 v -31.63086 -31.6289 l -10.58789,-0.13477 -10.58984,-0.13476 -0.13281,-10.58789 -0.13477,-10.58789 h -10.20508 -10.20507 v 20.92578 20.92773 h 10.46484 10.46289 v 10.96289 10.96094 h -10.46289 -10.46484 v 10.46484 10.46289 h -10.96094 -10.96289 v -42.35351 -42.35156 h -10.46289 -10.46485 v 10.72265 10.72266 l -10.58789,-0.13477 -10.58789,-0.13476 -0.13476,-10.58789 -0.13477,-10.58789 h -10.44336 -10.44531 l -0.13281,10.58789 -0.13477,10.58789 h -21.17773 -21.17579 l -0.13476,-10.83789 -0.13477,-10.83789 h 10.72266 10.72266 v -10.4629 -10.46289 h -10.7129 -10.71289 v -21.42578 -21.42578 h 10.70899 10.70703 l 0.12891,21.30078 0.13086,21.30078 10.33398,0.13477 10.33398,0.13476 0.12891,-21.31054 0.13086,-21.3125 h 10.71289 10.71289 l 0.12891,21.30078 0.13086,21.30273 h 10.45898 10.45703 V 259.9082 249.19531 h 10.46485 10.46289 V 238.73047 228.26758 H 216.16016 205.69531 V 217.55469 206.8418 h -42.61719 -42.61914 l 0.14063,-36 0.14062,-36 1.3125,-2.80078 c 1.84676,-3.93851 4.48321,-6.64093 8.32227,-8.53125 l 3.29883,-1.62305 36.00976,-0.14063 z m 127.3086,0.28125 h 36.125 36.125 l 2.96484,1.45312 c 5.37226,2.63398 8.79922,7.2211 9.75586,13.0625 0.27213,1.6621 0.47881,17.48004 0.48047,36.68164 l 0.004,33.75782 H 375.60352 332.75 l 0.12695,-42.47852 z m -148.73438,21.16406 -21.05078,0.13086 -21.05273,0.13086 -0.13086,21.05078 -0.12891,21.05274 h 21.18164 21.18164 v -21.18164 z m 170.41016,0.0117 v 21.17578 21.17774 h 20.92773 20.92774 V 164.23828 143.0625 h -20.92774 z m -106.13281,0.49805 v 10.21484 10.21484 h 20.92773 20.92773 v -10.21484 -10.21484 h -20.92773 z m 20.92773,42.35351 v 10.46289 10.46485 h 10.46289 10.46484 V 196.37695 185.91406 H 279.9375 Z m 0,42.35352 v 10.46289 10.46484 h 10.46289 10.46484 V 238.73047 228.26758 H 279.9375 Z m -42.35352,21.42578 v 20.92773 20.92579 h 10.46485 10.46289 v -10.4629 -10.46289 h 10.46289 10.46484 v -10.46484 -10.46289 h -20.92773 z m 63.7793,0 v 10.46289 10.46484 h 10.46289 10.46484 v -10.46484 -10.46289 h -10.46484 z m 20.92773,20.92773 v 10.46289 10.4629 h 31.88868 31.89062 v -10.4629 -10.46289 H 364.89453 354.18164 V 260.15625 249.69336 H 343.7168 333.25391 v 10.46289 10.46484 h -10.71289 z m -20.92773,21.42579 v 10.46289 10.46289 h 10.46289 10.46484 v -10.46289 -10.46289 h -10.46484 z m -85.20508,41.8496 V 376.75 419.60352 l -34.50586,-0.0547 c -18.97795,-0.0302 -35.48451,-0.24722 -36.68164,-0.48242 -5.31352,-1.04425 -10.08867,-4.81719 -12.4375,-9.82813 l -1.33008,-2.83789 v -36.125 -36.125 l 42.47852,-0.12695 z m 127.3086,0.25391 h 42.60156 42.60351 v 35.875 35.87695 l -1.39453,2.98828 c -1.81583,3.89171 -5.20375,7.29588 -9.01367,9.05665 l -3.04492,1.4082 -35.75977,0.14258 c -28.80778,0.11527 -35.80672,0.0191 -36.0039,-0.49805 -0.13455,-0.35301 -0.18749,-19.58886 -0.11719,-42.74609 z M 141.91602,355.8242 v 20.92773 20.92774 h 21.17773 21.17578 V 376.75193 355.8242 h -21.17578 z m 212.76367,0 v 20.92773 20.92774 h 20.92773 20.92774 V 376.75193 355.8242 h -20.92774 z"
       transform="scale(0.26458333)" />
  </g>
</svg>
