<?xml version="1.0" encoding="UTF-8" standalone="no"?>
<svg
   xmlns:dc="http://purl.org/dc/elements/1.1/"
   xmlns:cc="http://creativecommons.org/ns#"
   xmlns:rdf="http://www.w3.org/1999/02/22-rdf-syntax-ns#"
   xmlns:svg="http://www.w3.org/2000/svg"
   xmlns="http://www.w3.org/2000/svg"
   width="139.90407mm"
   height="147.20551mm"
   viewBox="0 0 139.90407 147.20551"
   version="1.1"
   id="svg5427">
  <defs
     id="defs5421">
    <mask
       id="mask-2-3-5-0"
       fill="#ffffff">
      <polygon
         id="use1885-0-6-4"
         points="0,106.00414 0,0.64969272 52.82253,0.64969272 52.82253,106.00414 "
         transform="scale(0.26458333)" />
    </mask>
  </defs>
  <metadata
     id="metadata5424">
    <rdf:RDF>
      <cc:Work
         rdf:about="">
        <dc:format>image/svg+xml</dc:format>
        <dc:type
           rdf:resource="http://purl.org/dc/dcmitype/StillImage" />
        <dc:title></dc:title>
      </cc:Work>
    </rdf:RDF>
  </metadata>
  <g
     id="layer8"
     style="display:inline">
    <rect
       style="opacity:1;fill:#000000;fill-opacity:0.999943;stroke:#000000;stroke-width:0.155835;stroke-opacity:1"
       id="rect3894"
       width="139.90407"
       height="147.20551"
       x="5174.9209"
       y="948.70874" />
    <path
       d="m 5247.3206,983.50975 39.2214,15.68856 v 5.22959 h -5.2289 q 0,1.0622 -0.8389,1.8385 -0.8388,0.7766 -1.9819,0.7766 h -62.345 q -1.1442,0 -1.982,-0.7766 -0.8388,-0.7765 -0.8388,-1.8385 h -5.229 v -5.22959 z m -28.7624,26.14775 h 10.4588 v 31.3772 h 5.2298 v -31.3772 h 10.4589 v 31.3772 h 5.2299 v -31.3772 h 10.4589 v 31.3772 h 5.2298 v -31.3772 h 10.4588 v 31.3772 h 2.41 q 1.1441,0 1.982,0.7764 0.8387,0.7767 0.8387,1.8385 v 2.6149 h -67.9847 v -2.6149 q 0,-1.0621 0.8388,-1.8385 0.8387,-0.7764 1.982,-0.7764 h 2.4099 z m 65.1648,39.2214 q 1.1441,0 1.9819,0.7765 0.8389,0.7766 0.8389,1.8386 v 5.2295 h -78.4428 v -5.2295 q 0,-1.0622 0.8387,-1.8386 0.8388,-0.7765 1.982,-0.7765 z"
       fill="currentColor"
       id="path4246"
       style="opacity:1;fill:#ffffff;stroke-width:0.0408559" />
    <path
       id="rect3894-5"
       style="opacity:1;fill:#000000;fill-opacity:0.999943;stroke:#000000;stroke-width:0.588983;stroke-opacity:1"
       d="M 0.29492188,0.29492188 V 556.66211 H 529.06641 V 0.29492188 Z M 273.63672,131.53125 421.875,190.82617 v 19.76563 h -19.76367 c 0,2.67641 -1.05616,4.99318 -3.16992,6.94922 -2.11352,1.95678 -4.60999,2.93554 -7.49024,2.93554 H 155.81641 c -2.88303,0 -5.3812,-0.97876 -7.49219,-2.93554 -2.11354,-1.95654 -3.16992,-4.27332 -3.16992,-6.94922 h -19.76368 v -19.76563 z m -108.70899,98.82617 h 39.5293 v 118.5918 h 19.76563 v -118.5918 h 39.53125 v 118.5918 h 19.76562 v -118.5918 h 39.5293 v 118.5918 h 19.76758 v -118.5918 h 39.52929 v 118.5918 h 9.10742 c 2.88278,0 5.38095,0.97731 7.49219,2.93359 2.11326,1.95704 3.16992,4.27382 3.16992,6.94922 v 9.88281 H 145.16406 v -9.88281 c 0,-2.67616 1.05641,-4.99294 3.16992,-6.94922 2.11326,-1.95628 4.61144,-2.93359 7.49219,-2.93359 h 9.10742 z M 136.06641,378.5957 H 411.2207 c 2.88277,0 5.37925,0.97901 7.49024,2.93555 2.11376,1.95679 3.16992,4.27331 3.16992,6.94922 v 19.76367 H 125.4043 v -19.76367 c 0,-2.67641 1.05666,-4.99294 3.16992,-6.94922 2.11351,-1.95654 4.61168,-2.93555 7.49219,-2.93555 z"
       transform="scale(0.26458333)" />
  </g>
</svg>
