<?xml version="1.0" encoding="UTF-8" standalone="no"?>
<svg
   xmlns:dc="http://purl.org/dc/elements/1.1/"
   xmlns:cc="http://creativecommons.org/ns#"
   xmlns:rdf="http://www.w3.org/1999/02/22-rdf-syntax-ns#"
   xmlns:svg="http://www.w3.org/2000/svg"
   xmlns="http://www.w3.org/2000/svg"
   width="139.90407mm"
   height="147.20551mm"
   viewBox="0 0 139.90407 147.20551"
   version="1.1"
   id="svg5427">
  <defs
     id="defs5421" />
  <metadata
     id="metadata5424">
    <rdf:RDF>
      <cc:Work
         rdf:about="">
        <dc:format>image/svg+xml</dc:format>
        <dc:type
           rdf:resource="http://purl.org/dc/dcmitype/StillImage" />
        <dc:title></dc:title>
      </cc:Work>
    </rdf:RDF>
  </metadata>
  <g
     id="layer1"
     transform="translate(-24.542013,67.55513)"
     style="display:none">
    <path
       id="rect3752"
       style="opacity:1;fill:#000000;fill-opacity:0.999943;stroke:none;stroke-width:8.14866;stroke-miterlimit:4;stroke-dasharray:none;stroke-opacity:1"
       d="M 0,0 V 556.36719 H 528.77148 V 0 Z m 249.40234,98.751953 30.50782,7.609377 -12.25977,49.15234 c 8.19099,1.87121 16.43428,3.75676 24.45899,5.75586 l 12.17382,-48.83203 30.52735,7.60938 -12.50391,50.15234 c 38.54438,13.27684 66.73226,33.17846 61.19336,70.20117 l 0.008,0.01 c -4.00743,27.10185 -19.03048,40.22193 -38.97656,44.82226 27.38872,14.25936 41.32555,36.12792 28.04883,74.03711 -16.47723,47.08303 -55.61996,51.05378 -107.67578,41.20313 l -12.63477,50.63086 -30.52734,-7.60938 12.46875,-49.95117 c -7.91282,-1.96399 -15.99919,-4.05185 -24.32813,-6.3125 l -12.51172,50.1875 -30.49414,-7.60742 12.63477,-50.72657 c -7.13008,-1.82737 -14.3728,-3.76136 -21.76367,-5.61718 l -39.72657,-9.90235 15.15625,-34.94531 c 0,0 22.48231,5.98349 22.1875,5.53906 8.64226,2.13917 12.4766,-3.49555 13.99219,-7.25195 l 19.96289,-80.03711 c 1.12026,0.26718 2.20949,0.55436 3.22657,0.80078 -1.21891,-0.48442 -2.32496,-0.81991 -3.17383,-1.01758 l 14.24218,-57.13281 c 0.37266,-6.48638 -1.86221,-14.66895 -14.22656,-17.75391 0.47925,-0.3219 -22.16992,-5.51367 -22.16992,-5.51367 l 8.12109,-32.60547 42.09961,10.51172 -0.0449,0.14844 c 6.33033,1.57447 12.852,3.06464 19.49414,4.58008 z m 10.02344,92.818357 -15.19726,60.95117 c 17.23276,4.29582 70.35703,21.81554 78.96679,-12.66796 8.96202,-35.97121 -46.53715,-43.98887 -63.76953,-48.28321 z m -22.86719,91.71289 -16.76367,67.20313 c 20.69367,5.13838 84.52327,25.63234 93.95508,-12.2793 9.86041,-39.53511 -56.49736,-49.75974 -77.19141,-54.92383 z"
       transform="matrix(0.26458333,0,0,0.26458333,24.542013,-67.55513)" />
  </g>
  <g
     id="layer2">
    <path
       id="rect3764"
       style="opacity:1;fill:#000000;fill-opacity:0.999943;stroke:none;stroke-width:8.14866;stroke-miterlimit:4;stroke-dasharray:none;stroke-opacity:1"
       d="M 0,0 V 556.36719 H 528.77148 V 0 Z m 341.66211,117.86328 c 5.26148,0.0923 8.42568,4.83263 4.66406,11.60352 l -62.80664,123.51758 h 112.00195 c 0,0 17.79478,-6e-4 0,14.65429 L 201.875,438.25781 c -13.60819,11.51411 -23.02751,5.23404 -13.60742,-12.56054 l 60.71094,-120.375 H 138.02344 c 0,0 -17.79515,-0.002 0,-15.70313 L 334.81055,120.04688 c 2.41182,-1.54454 4.79272,-2.21972 6.85156,-2.1836 z"
       transform="scale(0.26458333)" />
  </g>
</svg>
