<?xml version="1.0" encoding="UTF-8" standalone="no"?>
<svg
   xmlns:dc="http://purl.org/dc/elements/1.1/"
   xmlns:cc="http://creativecommons.org/ns#"
   xmlns:rdf="http://www.w3.org/1999/02/22-rdf-syntax-ns#"
   xmlns:svg="http://www.w3.org/2000/svg"
   xmlns="http://www.w3.org/2000/svg"
   width="139.90407mm"
   height="147.20551mm"
   viewBox="0 0 139.90407 147.20551"
   version="1.1"
   id="svg5427">
  <defs
     id="defs5421">
    <mask
       id="mask-2-3-5-0"
       fill="#ffffff">
      <polygon
         id="use1885-0-6-4"
         points="0,106.00414 0,0.64969272 52.82253,0.64969272 52.82253,106.00414 "
         transform="scale(0.26458333)" />
    </mask>
    <mask
       id="mask-2-3-5-0-0"
       fill="#ffffff">
      <polygon
         id="use1885-0-6-4-0"
         points="0,106.00414 0,0.64969272 52.82253,0.64969272 52.82253,106.00414 "
         transform="scale(0.26458333)" />
    </mask>
  </defs>
  <metadata
     id="metadata5424">
    <rdf:RDF>
      <cc:Work
         rdf:about="">
        <dc:format>image/svg+xml</dc:format>
        <dc:type
           rdf:resource="http://purl.org/dc/dcmitype/StillImage" />
        <dc:title></dc:title>
      </cc:Work>
    </rdf:RDF>
  </metadata>
  <g
     id="layer3"
     style="display:inline">
    <rect
       style="opacity:1;fill:#000000;fill-opacity:0.999943;stroke:#000000;stroke-width:0.155835;stroke-opacity:1"
       id="rect3772"
       width="139.90407"
       height="147.20551"
       x="5362.9048"
       y="224.36522" />
    <g
       id="g3798"
       style="opacity:1;fill:#ffffff;fill-opacity:1;fill-rule:evenodd;stroke:none;stroke-width:1"
       transform="matrix(0.82128656,0,0,0.82128656,5384.4534,249.82384)">
      <g
         id="g3796"
         style="fill:#ffffff;fill-opacity:1">
        <path
           d="m 23.116126,84.47205 c -2.194327,0 -4.280532,-1.281283 -5.193358,-3.415579 -3.101835,-7.250615 -4.67225,-14.954173 -4.67225,-22.895659 0,-29.534713 22.200278,-54.5223693 51.641127,-58.119478 3.096518,-0.3718716 5.905894,1.8064853 6.286977,4.8819163 0.381083,3.0736686 -1.818562,5.8723987 -4.909762,6.2495577 -23.795509,2.909763 -41.738297,23.108912 -41.738297,46.988004 0,6.4258 1.270867,12.652447 3.773605,18.505459 1.219464,2.849841 -0.116984,6.145575 -2.98308,7.35636 -0.721398,0.3049 -1.469383,0.449419 -2.204962,0.449419"
           id="path3778"
           fill="#2cccbf"
           style="fill:#ffffff;fill-opacity:1" />
        <path
           d="m 35.302691,53.830228 c -0.315134,0 -0.63731,-0.03908 -0.955965,-0.122572 -2.049251,-0.531143 -3.281618,-2.637953 -2.755221,-4.703905 4.873132,-19.103398 21.943177,-32.440604 41.514928,-32.440604 9.985694,0 19.70731,3.538587 27.374397,9.967376 1.62672,1.360722 1.85031,3.797942 0.49823,5.437559 -1.348566,1.641393 -3.764005,1.866995 -5.39073,0.504497 -6.295635,-5.277682 -14.279614,-8.185648 -22.481897,-8.185648 -16.07711,0 -30.097927,10.955055 -34.099599,26.64066 -0.443652,1.746201 -1.999956,2.902637 -3.704143,2.902637"
           id="path3780"
           fill="#9ef2ed"
           style="fill:#ffffff;fill-opacity:1" />
        <path
           d="M 70.296095,99.278261 C 65.74402,98.96921 61.304232,97.949344 57.101494,96.240476 c -1.989082,-0.808985 -2.95867,-3.108684 -2.167315,-5.137509 0.79492,-2.027008 3.047787,-3.015969 5.036869,-2.208802 3.448812,1.403453 7.095462,2.241525 10.840141,2.496037 5.170544,0.350863 10.227019,-0.416309 15.030403,-2.283338 2.001558,-0.774444 4.240166,0.249059 5.001222,2.288792 0.761056,2.039733 -0.242397,4.324888 -2.242173,5.102968 -5.854959,2.27243 -12.011133,3.206853 -18.304546,2.779637"
           id="path3782"
           fill="#9ef2ed"
           style="fill:#ffffff;fill-opacity:1" />
        <g
           id="g3792"
           transform="translate(0,18.219462)"
           style="fill:#ffffff;fill-opacity:1">
          <mask
             id="mask3786"
             fill="#ffffff">
            <polygon
               id="polygon3784"
               points="52.82253,106.00414 0,106.00414 0,0.64969272 52.82253,0.64969272 "
               transform="scale(0.26458333)" />
          </mask>
          <g
             id="g3788"
             style="fill:#ffffff;fill-opacity:1" />
          <path
             d="m 48.980803,106.00467 c -0.371014,0 -0.749096,-0.0548 -1.121877,-0.16961 C 19.681259,97.241662 -1.7667357e-4,69.671752 -1.7667357e-4,39.142559 -1.7667357e-4,26.070482 3.7152685,13.371186 10.74511,2.4174244 c 1.143078,-1.78616974 3.519337,-2.30559003 5.307274,-1.1572118 1.786169,1.1448447 2.30559,3.5228709 1.158978,5.3090407 -6.233043,9.7117457 -9.5280052,20.9764527 -9.5280052,32.5733057 0,27.179462 17.4429812,51.728254 42.4175572,59.342885 2.029979,0.620124 3.173057,2.766706 2.552933,4.796686 -0.505287,1.65543 -2.026446,2.72254 -3.673044,2.72254"
             id="path3790"
             fill="#9ef2ed"
             mask="url(#mask-2-3-5-0)"
             style="fill:#ffffff;fill-opacity:1" />
        </g>
        <path
           d="m 72.497287,114.28571 c -16.772341,0 -32.08858,-6.30041 -42.363654,-17.517002 -1.640087,-1.791177 -1.506918,-4.559674 0.296127,-6.189123 1.803044,-1.62597 4.594346,-1.495545 6.236185,0.295631 9.074797,9.903634 23.03481,15.237174 38.240658,14.598954 2.44436,-0.11477 4.490964,1.779 4.592593,4.19622 0.10163,2.41548 -1.790778,4.45881 -4.228129,4.55968 -0.92693,0.0365 -1.855612,0.0556 -2.77378,0.0556"
           id="path3794"
           fill="#2cccbf"
           style="fill:#ffffff;fill-opacity:1" />
      </g>
    </g>
    <path
       id="rect3772-4"
       style="display:inline;opacity:1;fill:#000000;fill-opacity:0.999943;stroke:#000000;stroke-width:0.155835;stroke-opacity:1"
       d="M 0.07803137,0.07803114 V 147.28351 H 139.98215 V 0.07803114 Z M 78.341988,26.849525 c 0.650359,-0.01466 1.136242,0.07302 1.651579,0.271301 1.199602,0.461548 2.164305,1.498137 2.546099,2.736266 0.519813,1.685732 -0.09218,3.605884 -1.483114,4.653981 -0.770837,0.580845 -1.221121,0.742423 -2.627231,0.943094 -7.890108,1.126032 -14.923722,4.626573 -20.504174,10.204545 -6.244423,6.241666 -9.903052,14.277401 -10.553361,23.180498 -0.07277,0.996389 -0.07272,3.801075 0,4.796089 0.2891,3.949951 1.056389,7.339552 2.478402,10.950752 0.555281,1.410129 0.539216,1.358924 0.61495,1.960605 0.26116,2.074775 -1.116777,4.095213 -3.171901,4.650361 -0.438648,0.118481 -1.503233,0.14727 -1.945101,0.05271 C 44.72563,91.116439 44.21704,90.889654 43.669686,90.501452 42.893822,89.951166 42.505141,89.366305 41.87703,87.803427 39.298915,81.38845 38.264677,74.320189 38.876698,67.294083 39.973814,54.69908 46.445792,43.073826 56.604297,35.451066 c 6.015122,-4.513651 12.901274,-7.37901 20.347596,-8.466667 0.550709,-0.08044 0.999879,-0.126079 1.390095,-0.134874 z m 5.716963,13.187307 c 1.167352,-0.0092 2.340091,0.02508 3.147613,0.106455 0.680868,0.0686 1.035727,0.109271 1.412316,0.16123 0.509813,0.07034 0.676008,0.09406 0.746207,0.105936 0.04399,0.0074 0.187992,0.03113 0.319879,0.05271 0.131892,0.02159 0.287615,0.04815 0.346231,0.05943 0.05861,0.01127 0.310531,0.05894 0.559655,0.105937 0.249126,0.04698 0.491865,0.09317 0.539504,0.10232 0.04764,0.0091 0.173341,0.04045 0.279569,0.06976 0.106238,0.02935 0.19327,0.04276 0.19327,0.02946 0,-0.01331 0.04175,-0.0019 0.09302,0.02532 0.05131,0.0274 0.186391,0.0647 0.299723,0.08268 0.113326,0.01799 0.222776,0.04307 0.243395,0.05581 0.02064,0.01275 0.0957,0.03516 0.166915,0.05013 0.07122,0.01492 0.273217,0.06657 0.44907,0.114723 0.175852,0.04815 0.35601,0.09573 0.399976,0.105418 0.04399,0.0098 0.487217,0.14977 0.985469,0.31161 0.498253,0.161835 0.92981,0.297424 0.959115,0.301273 0.02929,0.0039 0.07766,0.02614 0.106968,0.04909 0.04222,0.03312 0.368102,0.156361 0.505913,0.191201 0.01463,0.0039 0.0926,0.03378 0.173117,0.06718 0.08051,0.03345 0.40418,0.166704 0.719336,0.296106 1.098513,0.451065 3.021586,1.384298 3.690728,1.791105 0.044,0.02674 0.33149,0.198779 0.63923,0.382405 1.80249,1.075558 4.11741,2.80007 4.46433,3.325897 0.0838,0.127011 0.34998,0.669703 0.36432,0.74259 0.006,0.02929 0.0333,0.150683 0.061,0.269235 0.0524,0.225364 0.0449,0.860862 -0.0129,1.089856 -0.0185,0.07328 -0.0393,0.162647 -0.0465,0.198437 -0.007,0.03578 -0.0297,0.08142 -0.0501,0.101801 -0.0203,0.0204 -0.0372,0.0684 -0.0372,0.106455 0,0.177427 -0.76955,1.138431 -0.91157,1.138431 -0.022,0 -0.0719,0.03019 -0.11059,0.06718 -0.0589,0.05625 -0.32285,0.199433 -0.41651,0.225825 -0.0147,0.0039 -0.13475,0.03878 -0.26665,0.077 -0.34336,0.09951 -0.97723,0.108794 -1.32602,0.01913 -0.27408,-0.07046 -0.95519,-0.400624 -1.01854,-0.493508 -0.0378,-0.05542 -0.89681,-0.73196 -1.2237,-0.963766 -0.10147,-0.07197 -0.23198,-0.172472 -0.2899,-0.223758 -0.0579,-0.05131 -0.12301,-0.09354 -0.1447,-0.09354 -0.0217,0 -0.07451,-0.03471 -0.117295,-0.07751 -0.116859,-0.116853 -1.301544,-0.8816 -1.365809,-0.8816 -0.03068,0 -0.05581,-0.01992 -0.05581,-0.04444 0,-0.02453 -0.126217,-0.111273 -0.280085,-0.192751 -0.153877,-0.08147 -0.367276,-0.199464 -0.47439,-0.262001 -0.33872,-0.197747 -1.428335,-0.779796 -1.45986,-0.779796 -0.01664,0 -0.22661,-0.09477 -0.466638,-0.210323 -0.552762,-0.266099 -1.051914,-0.491066 -1.125513,-0.507463 -0.03129,-0.0069 -0.153033,-0.05513 -0.270267,-0.106971 -0.117237,-0.05181 -0.237342,-0.09936 -0.26665,-0.105936 -0.02929,-0.0066 -0.124976,-0.04246 -0.212907,-0.07958 -0.437888,-0.184828 -2.318234,-0.78594 -2.744536,-0.877467 -0.07327,-0.01577 -0.37111,-0.08861 -0.661975,-0.161748 -0.290861,-0.07312 -0.625813,-0.147635 -0.744659,-0.165365 -0.11884,-0.01775 -0.228637,-0.03978 -0.243911,-0.04909 -0.01524,-0.0093 -0.111882,-0.03104 -0.214458,-0.04806 -0.10259,-0.01704 -0.245716,-0.04269 -0.31781,-0.05736 -0.120742,-0.02458 -0.221879,-0.0406 -0.747757,-0.115755 -0.102579,-0.01463 -0.246608,-0.03536 -0.319879,-0.04651 -0.07327,-0.01114 -0.277344,-0.03621 -0.453202,-0.05581 -0.175853,-0.01958 -0.362844,-0.04375 -0.415994,-0.05374 -0.339381,-0.06372 -1.400704,-0.102523 -2.807581,-0.10232 -1.404874,0 -1.971799,0.02135 -2.744536,0.10232 -0.713883,0.07482 -0.862618,0.09276 -0.932759,0.11162 -0.04399,0.01183 -0.210656,0.03552 -0.37052,0.05323 -0.159867,0.01765 -0.303895,0.04031 -0.319876,0.05013 -0.01598,0.0099 -0.160751,0.03437 -0.321945,0.05478 -0.161198,0.02035 -0.305634,0.04488 -0.320911,0.05426 -0.01524,0.0093 -0.134445,0.03323 -0.265099,0.05271 -0.130654,0.01947 -0.25201,0.04431 -0.269751,0.0553 -0.01775,0.01098 -0.114337,0.03415 -0.214458,0.05168 -0.166454,0.02917 -0.443023,0.09225 -0.714684,0.163298 -0.05861,0.01529 -0.166511,0.03997 -0.239779,0.05478 -0.07327,0.01476 -0.265136,0.06637 -0.426331,0.114205 -0.1612,0.04782 -0.323839,0.092 -0.36122,0.0987 -0.10923,0.01953 -1.284607,0.394247 -1.441254,0.459401 -0.07863,0.03272 -0.154847,0.06244 -0.1695,0.06615 -0.15598,0.03944 -0.466823,0.160369 -0.519348,0.202057 -0.03661,0.02907 -0.06666,0.03879 -0.06666,0.0217 0,-0.02863 -0.68594,0.246816 -1.383379,0.555521 -0.831239,0.36793 -2.569602,1.26583 -2.666503,1.377178 -0.01463,0.0168 -0.134762,0.08859 -0.266649,0.159678 -0.13189,0.07109 -0.251997,0.143079 -0.266653,0.160198 -0.01463,0.01714 -0.116432,0.07876 -0.22634,0.136424 -0.109911,0.05768 -0.199988,0.123087 -0.199988,0.14573 0,0.02262 -0.02593,0.04134 -0.05788,0.04134 -0.04927,0 -0.66067,0.396502 -0.741042,0.480589 -0.01463,0.01532 -0.09835,0.0736 -0.185518,0.129191 -0.08716,0.0556 -0.182835,0.120436 -0.212905,0.144179 -0.03007,0.02376 -0.222718,0.168395 -0.427881,0.321427 -0.205158,0.153032 -0.398987,0.303615 -0.430983,0.334346 -0.03201,0.03073 -0.137104,0.115348 -0.233577,0.188619 -0.09648,0.07328 -0.217312,0.169463 -0.268718,0.213423 -0.05142,0.04399 -0.18255,0.150429 -0.291455,0.236678 -0.382479,0.302913 -0.753771,0.650489 -1.65313,1.548228 -0.944747,0.943041 -1.139724,1.151683 -1.62574,1.737878 -0.524563,0.632701 -0.664707,0.80775 -0.714166,0.894517 -0.02679,0.04704 -0.06453,0.0975 -0.08423,0.112138 -0.05783,0.04299 -0.597185,0.792446 -0.882118,1.225767 -0.144544,0.219811 -0.276331,0.411673 -0.293005,0.426329 -0.02585,0.0227 -0.138903,0.204028 -0.514696,0.825791 -0.0355,0.05871 -0.08103,0.142584 -0.101288,0.186552 -0.02024,0.04399 -0.06618,0.116237 -0.101801,0.160195 -0.03561,0.04399 -0.16019,0.259747 -0.276987,0.479557 -0.116787,0.219821 -0.322932,0.603533 -0.457851,0.852662 -0.13493,0.249124 -0.246581,0.470297 -0.248566,0.491961 -0.0024,0.02162 -0.113413,0.272987 -0.247528,0.558104 -0.13413,0.285123 -0.252904,0.563325 -0.263551,0.618567 -0.01061,0.05525 -0.04031,0.128098 -0.06615,0.161748 -0.04399,0.05736 -0.326803,0.743789 -0.354499,0.860412 -0.01249,0.05259 -0.03268,0.110646 -0.112139,0.319878 -0.02225,0.05861 -0.04503,0.118674 -0.05013,0.133324 -0.005,0.01463 -0.02684,0.06676 -0.04858,0.115755 -0.0217,0.04899 -0.04575,0.120764 -0.05374,0.159681 -0.008,0.03895 -0.03187,0.110683 -0.05323,0.159679 -0.02135,0.04899 -0.04575,0.121277 -0.05374,0.160197 -0.008,0.03895 -0.03187,0.110678 -0.05323,0.159682 -0.02135,0.04899 -0.04719,0.132979 -0.05736,0.186552 -0.01019,0.05359 -0.02307,0.103262 -0.02894,0.110588 -0.0059,0.0073 -0.01696,0.03732 -0.02429,0.06666 -0.0073,0.02929 -0.01902,0.06544 -0.02635,0.0801 -0.0073,0.01463 -0.01757,0.04469 -0.02273,0.06666 -0.005,0.02196 -0.0526,0.183814 -0.105418,0.359667 -0.05282,0.175853 -0.10568,0.361603 -0.117306,0.412896 -0.02196,0.09685 -0.07009,0.294113 -0.09457,0.38654 -0.0127,0.0481 -0.122034,0.303562 -0.250629,0.58601 -0.162213,0.356288 -0.623951,0.799539 -1.083654,1.040246 -0.207433,0.108617 -0.389456,0.198713 -0.404111,0.199988 -0.01463,0.0011 -0.118793,0.01968 -0.231511,0.04082 -0.202737,0.03806 -0.767138,0.07254 -0.79375,0.04857 h -5.29e-4 c -0.0075,-0.0069 -0.109625,-0.02564 -0.226859,-0.04134 -0.294161,-0.03944 -0.429731,-0.08871 -0.799436,-0.291454 -0.516652,-0.283322 -0.831942,-0.624637 -1.09864,-1.188559 -0.280146,-0.592381 -0.301156,-1.178346 -0.07338,-2.046388 0.04615,-0.175853 0.0929,-0.356008 0.103867,-0.399973 0.01093,-0.04399 0.04766,-0.151855 0.08165,-0.239779 0.03395,-0.08793 0.05994,-0.165788 0.05788,-0.173117 -0.0024,-0.0073 -0.0024,-0.01905 5.29e-4,-0.02635 0.0024,-0.0073 0.01236,-0.04959 0.02222,-0.09354 0.0099,-0.04399 0.05503,-0.181882 0.100254,-0.30644 0.04521,-0.124566 0.0681,-0.226343 0.05116,-0.226343 -0.01691,0 -0.0044,-0.03186 0.02791,-0.0708 0.03229,-0.03895 0.06961,-0.12901 0.08268,-0.199988 0.01304,-0.07097 0.02823,-0.134778 0.03411,-0.142107 0.0058,-0.0073 0.01606,-0.03121 0.02222,-0.05323 0.0062,-0.02196 0.02889,-0.08019 0.05064,-0.129191 0.0217,-0.04899 0.0442,-0.120756 0.05013,-0.159679 0.0059,-0.03895 0.02506,-0.09523 0.04238,-0.124542 0.0173,-0.02929 0.06043,-0.148897 0.09612,-0.266133 0.03566,-0.117229 0.101156,-0.294294 0.145728,-0.393256 0.0446,-0.09898 0.08587,-0.206862 0.09147,-0.239779 0.0056,-0.0329 0.03968,-0.113884 0.07597,-0.179834 0.03627,-0.06594 0.05254,-0.119891 0.03617,-0.119891 -0.01638,0 0.01262,-0.06486 0.0646,-0.144177 0.05198,-0.0793 0.0892,-0.150854 0.08268,-0.159162 -0.01786,-0.0227 0.03731,-0.166516 0.20774,-0.543119 0.08472,-0.187219 0.205719,-0.463047 0.268717,-0.612883 0.345043,-0.820751 1.425707,-2.821162 2.098063,-3.882967 0.143878,-0.227219 0.285258,-0.460803 0.314193,-0.519348 0.02889,-0.05854 0.07118,-0.106455 0.09353,-0.106455 0.02236,0 0.04083,-0.0361 0.04083,-0.0801 0,-0.04399 0.02389,-0.0801 0.05323,-0.0801 0.02929,0 0.05323,-0.03558 0.05323,-0.07958 0,-0.04399 0.01783,-0.08006 0.03979,-0.0801 0.02196,-5.5e-5 0.111379,-0.114051 0.198438,-0.253214 0.08707,-0.139166 0.189169,-0.285094 0.226861,-0.324011 0.03767,-0.03895 0.09559,-0.121127 0.128675,-0.182936 0.06416,-0.119883 0.06867,-0.126415 0.311608,-0.412377 0.08713,-0.102579 0.159208,-0.200575 0.159679,-0.218075 5.29e-4,-0.01746 0.04277,-0.08204 0.09405,-0.143661 0.05131,-0.06162 0.136012,-0.167187 0.188619,-0.234611 0.104563,-0.134022 0.345667,-0.429075 0.499713,-0.611849 0.05381,-0.06383 0.169421,-0.204208 0.257347,-0.312126 0.08793,-0.107905 0.231958,-0.274003 0.319879,-0.36897 0.08793,-0.09497 0.295902,-0.326077 0.461986,-0.513662 0.706004,-0.797409 2.265429,-2.283962 3.321762,-3.1657 0.175559,-0.146542 0.331581,-0.278627 0.346231,-0.294039 0.04232,-0.04449 1.445347,-1.086345 1.651579,-1.22628 0.102579,-0.06961 0.198769,-0.13956 0.213424,-0.156062 0.01463,-0.01648 0.230428,-0.161623 0.479557,-0.321945 0.249124,-0.160322 0.464902,-0.30399 0.479557,-0.31936 0.01463,-0.01537 0.116436,-0.07513 0.226344,-0.13281 0.109902,-0.05767 0.199988,-0.123085 0.199988,-0.145728 0,-0.02262 0.02437,-0.04134 0.05426,-0.04134 0.02991,0 0.156102,-0.06536 0.280086,-0.145208 0.123975,-0.07985 0.273147,-0.171588 0.331763,-0.203608 0.05863,-0.03201 0.382286,-0.210399 0.719336,-0.396875 1.069187,-0.591513 2.385896,-1.220822 3.463354,-1.654677 0.278712,-0.112234 0.578699,-0.233135 0.666625,-0.269235 0.08793,-0.03612 0.171897,-0.06865 0.186553,-0.07235 0.155982,-0.03944 0.466828,-0.160885 0.519348,-0.20257 0.03667,-0.02907 0.06666,-0.03935 0.06666,-0.02326 0,0.01609 0.144026,-0.02721 0.319879,-0.09612 0.17585,-0.06892 0.319876,-0.114514 0.319876,-0.101285 0,0.01326 0.07175,-0.01344 0.159681,-0.05891 0.08793,-0.04549 0.159679,-0.07117 0.159679,-0.05736 0,0.01381 0.137919,-0.0235 0.306443,-0.08268 0.168524,-0.0592 0.364929,-0.118782 0.436147,-0.132808 0.07122,-0.01405 0.149188,-0.03789 0.173117,-0.05271 0.02392,-0.01482 0.08555,-0.03498 0.136943,-0.04496 0.05142,-0.01008 0.23704,-0.05806 0.412896,-0.106455 0.175858,-0.04843 0.391631,-0.100698 0.479557,-0.116787 0.08792,-0.01609 0.201927,-0.05213 0.253214,-0.07958 0.05131,-0.02746 0.09302,-0.03864 0.09302,-0.02532 0,0.01331 0.08703,-2.64e-4 0.19327,-0.02946 0.106225,-0.02935 0.244147,-0.06307 0.306441,-0.07493 0.06228,-0.01188 0.233272,-0.04583 0.379822,-0.07596 0.366742,-0.07541 0.508807,-0.10345 0.679546,-0.133843 0.08059,-0.01437 0.212404,-0.03781 0.293004,-0.05219 0.08061,-0.01437 0.194599,-0.03582 0.253215,-0.04754 0.05863,-0.01169 0.214339,-0.03576 0.346231,-0.05374 0.131892,-0.01794 0.289906,-0.0427 0.351401,-0.05478 0.06149,-0.01204 0.241657,-0.03679 0.399976,-0.05529 0.447138,-0.05221 0.637309,-0.07476 0.953947,-0.112655 0.784503,-0.09391 1.946153,-0.14687 3.113503,-0.156064 z m -45.116626,1.701705 c 0.490315,0.02019 0.636529,0.04378 0.793234,0.127643 0.0532,0.02846 0.121068,0.05744 0.150379,0.06408 0.134088,0.03029 0.231492,0.08467 0.479557,0.267684 0.25254,0.186309 0.66611,0.597268 0.66611,0.661974 0,0.01654 0.05543,0.1196 0.123507,0.228928 0.242144,0.388858 0.37665,1.193991 0.278019,1.663981 -0.01537,0.07327 -0.03829,0.185557 -0.05116,0.249597 -0.01288,0.06404 -0.04978,0.165817 -0.08217,0.226343 -0.03239,0.06052 -0.04649,0.110072 -0.03101,0.110072 0.01548,0 -0.07967,0.168159 -0.211357,0.373618 -0.131696,0.205465 -0.23926,0.387282 -0.23926,0.403596 0,0.0163 -0.06006,0.10805 -0.133326,0.20412 -0.07327,0.09606 -0.132808,0.188955 -0.132808,0.206706 0,0.01775 -0.06616,0.135448 -0.146761,0.261483 -0.250598,0.391855 -0.278633,0.438663 -0.346231,0.575675 -0.03617,0.07327 -0.118412,0.21191 -0.18242,0.307991 -0.06401,0.09608 -0.168426,0.275727 -0.232542,0.39946 -0.06412,0.123737 -0.210061,0.392734 -0.324012,0.597897 -0.380013,0.684231 -1.417717,2.814807 -1.752348,3.597196 -0.482971,1.129204 -1.076728,2.637485 -1.143082,2.904215 -0.0073,0.02929 -0.02844,0.08936 -0.04703,0.133326 -0.05431,0.128423 -0.520666,1.54169 -0.541568,1.641242 -0.0105,0.04986 -0.05536,0.192212 -0.100253,0.316778 -0.04488,0.124557 -0.0681,0.226859 -0.05116,0.226859 0.01691,0 0.0011,0.03563 -0.03565,0.07958 -0.0365,0.04399 -0.05241,0.0801 -0.03566,0.0801 0.01675,0 -0.0073,0.09007 -0.05323,0.199985 -0.04593,0.109913 -0.08115,0.211688 -0.07855,0.226343 0.0028,0.01463 -0.02119,0.122659 -0.05271,0.239779 -0.03157,0.117126 -0.06697,0.25504 -0.07855,0.306443 -0.01159,0.05142 -0.03218,0.135255 -0.04599,0.18655 -0.01381,0.05131 -0.05014,0.189214 -0.08113,0.306443 -0.03101,0.117237 -0.06785,0.255146 -0.08165,0.30644 -0.01381,0.05131 -0.0362,0.143158 -0.04961,0.204124 -0.01341,0.06095 -0.0364,0.151037 -0.05116,0.199988 -0.01476,0.04892 -0.03841,0.148936 -0.05271,0.222207 -0.01431,0.07328 -0.04073,0.192863 -0.05839,0.266134 -0.01765,0.07327 -0.04237,0.181163 -0.0553,0.239779 -0.02291,0.103941 -0.0496,0.222263 -0.104902,0.466122 -0.01497,0.06594 -0.03863,0.179943 -0.05271,0.253214 -0.01408,0.07328 -0.03798,0.193378 -0.05323,0.266649 -0.01524,0.07327 -0.03913,0.192863 -0.05323,0.266134 -0.01402,0.07328 -0.03604,0.184267 -0.04858,0.246497 -0.01254,0.06223 -0.03617,0.194032 -0.05271,0.293005 -0.01654,0.09896 -0.04213,0.238992 -0.05684,0.311091 -0.01471,0.0721 -0.03964,0.217017 -0.05529,0.321945 -0.01564,0.104918 -0.03953,0.248949 -0.05323,0.319879 -0.01363,0.07093 -0.03841,0.225753 -0.05529,0.344165 -0.01685,0.118406 -0.03984,0.275026 -0.05116,0.348297 -0.0456,0.296415 -0.0842,0.581652 -0.104902,0.778248 -0.01204,0.114165 -0.03358,0.279493 -0.04806,0.367419 -0.03933,0.238728 -0.0892,0.729642 -0.167434,1.652096 -0.01741,0.205163 -0.04142,0.480996 -0.05323,0.612883 -0.128148,1.431028 -0.128204,5.158997 0,6.634737 0.01275,0.146542 0.03686,0.434078 0.05323,0.639238 0.03661,0.458801 0.07771,0.898716 0.107487,1.145665 0.01238,0.102576 0.03839,0.330578 0.05736,0.506431 0.01897,0.17586 0.04089,0.355494 0.04909,0.399457 0.0082,0.04397 0.03231,0.235831 0.05323,0.426331 0.02085,0.190511 0.04682,0.393174 0.05788,0.450617 0.01103,0.05744 0.03383,0.20147 0.05064,0.319879 0.03473,0.244081 0.0645,0.4216 0.103352,0.61495 0.01468,0.07328 0.0391,0.228999 0.05374,0.346231 0.01463,0.117239 0.03831,0.273481 0.05323,0.346749 0.0482,0.236948 0.193799,0.981716 0.21859,1.118794 0.0208,0.115099 0.138859,0.653415 0.216009,0.985988 0.0136,0.05863 0.03663,0.164187 0.05116,0.234611 0.01453,0.07041 0.06215,0.274514 0.105937,0.453203 0.04377,0.178696 0.09134,0.384582 0.105939,0.45785 0.01458,0.07329 0.04244,0.181163 0.06149,0.239779 0.01902,0.05863 0.03914,0.130374 0.04496,0.159681 0.0059,0.02931 0.05027,0.19725 0.0987,0.373105 0.04848,0.17585 0.100423,0.377558 0.115237,0.448035 0.01482,0.07049 0.05067,0.172254 0.07958,0.226341 0.02896,0.05405 0.03935,0.0987 0.02326,0.0987 -0.01609,0 0.0057,0.08347 0.04858,0.186037 0.04288,0.102571 0.06819,0.18655 0.05633,0.18655 -0.01188,0 0.01556,0.102298 0.06046,0.226861 0.04488,0.124558 0.09113,0.272328 0.102839,0.32866 0.01169,0.05634 0.07456,0.260406 0.140041,0.453203 0.06547,0.192786 0.123312,0.368173 0.128159,0.390157 0.005,0.02193 0.0149,0.05209 0.02222,0.06666 0.0073,0.01466 0.01905,0.05078 0.02635,0.0801 0.0073,0.02931 0.01955,0.06545 0.02687,0.0801 0.0073,0.01466 0.01902,0.05035 0.02635,0.07958 0.0073,0.02931 0.01955,0.06545 0.02687,0.0801 0.0073,0.01466 0.01902,0.05035 0.02635,0.07958 0.0073,0.02931 0.01955,0.06545 0.02687,0.0801 0.0073,0.01466 0.01733,0.04472 0.02222,0.06666 0.03362,0.151781 0.214678,0.637945 0.257866,0.692465 0.02901,0.03669 0.03295,0.06666 0.0088,0.06666 -0.02413,0 -0.01503,0.02892 0.02016,0.06408 0.03517,0.03516 0.06389,0.101336 0.06408,0.146762 0,0.04541 0.03634,0.151175 0.0801,0.235127 0.04377,0.08396 0.07958,0.1763 0.07958,0.205156 0,0.02881 0.03358,0.127783 0.07442,0.220141 0.07825,0.177019 0.118816,0.29314 0.134358,0.381373 0.005,0.02931 0.04515,0.107183 0.08837,0.173114 0.04321,0.06591 0.06317,0.119891 0.04444,0.119891 -0.01871,0 0.0055,0.05957 0.05323,0.132807 0.04804,0.07329 0.07332,0.133327 0.05633,0.133327 -0.01696,0 0.0042,0.06613 0.04702,0.146759 0.04294,0.0806 0.131447,0.278579 0.196371,0.439766 0.06492,0.161214 0.165994,0.400894 0.224792,0.532786 0.0588,0.13189 0.154996,0.347658 0.213424,0.479558 0.581819,1.31336 1.934509,3.962175 2.151806,4.213696 0.04,0.0463 0.07286,0.107264 0.07286,0.134874 0,0.0277 0.08346,0.177554 0.186037,0.333314 0.102579,0.15576 0.186552,0.295386 0.186552,0.310576 0,0.01511 0.07227,0.134302 0.160198,0.264583 0.08793,0.130289 0.159678,0.249264 0.159678,0.264065 0,0.01479 0.120108,0.208732 0.26665,0.430982 0.14655,0.222261 0.266134,0.410655 0.266134,0.419095 0,0.0413 0.5559,0.851733 0.594796,0.867132 0.02469,0.01 0.04496,0.05152 0.04496,0.09302 0,0.0415 0.02387,0.07545 0.05323,0.07545 0.02929,0 0.05323,0.0361 0.05323,0.0801 0,0.044 0.02387,0.0801 0.05323,0.0801 0.02929,0 0.05323,0.02392 0.05323,0.05323 0,0.0293 0.109802,0.202742 0.243911,0.386022 0.134102,0.18325 0.284242,0.389017 0.333314,0.457337 0.04909,0.0683 0.131131,0.173893 0.182417,0.234612 0.05131,0.0607 0.09298,0.125119 0.09302,0.142626 3.7e-5,0.01749 0.05396,0.09534 0.119888,0.173117 0.06591,0.0779 0.156027,0.195006 0.199988,0.260448 0.09178,0.13657 0.314492,0.417399 0.412896,0.520899 0.03683,0.0387 0.06752,0.0872 0.06821,0.10697 5.29e-4,0.02 0.07855,0.12244 0.173117,0.22789 0.09457,0.10543 0.231619,0.27175 0.30489,0.37 0.07327,0.0982 0.16946,0.21662 0.213423,0.26304 0.04399,0.0463 0.143095,0.1676 0.22066,0.26923 0.07756,0.10157 0.20937,0.26042 0.293005,0.35295 0.08364,0.0926 0.236416,0.26962 0.338997,0.39378 0.102579,0.12418 0.258305,0.30469 0.346231,0.40101 0.08793,0.0963 0.339027,0.37471 0.558107,0.61856 0.668557,0.74411 2.380229,2.43588 3.225125,3.18741 0.637861,0.56738 1.515502,1.29902 2.619479,2.18384 0.03379,0.027 0.357417,0.26576 0.719336,0.53072 0.36191,0.26496 0.682273,0.50095 0.711583,0.52451 0.210976,0.16954 1.412486,0.971 1.455727,0.971 0.02973,0 0.06206,0.0178 0.07183,0.0398 0.01826,0.041 0.610029,0.43976 0.652674,0.43976 0.01304,0 0.16323,0.0919 0.33383,0.20412 0.170593,0.11223 0.41737,0.26186 0.548802,0.3328 0.131437,0.071 0.317915,0.18122 0.414446,0.24494 0.09654,0.0637 0.276762,0.16788 0.400492,0.23151 0.123732,0.0636 0.369334,0.19756 0.545187,0.29714 0.382024,0.21638 2.518738,1.30245 2.557984,1.30018 0.01508,0 0.09282,0.0322 0.173114,0.0734 0.481909,0.24748 3.198273,1.35728 3.396176,1.38751 0.02973,0.004 0.07818,0.0222 0.107487,0.0398 0.05747,0.0344 2.042847,0.69213 2.131136,0.7059 0.132385,0.0207 0.658339,0.36539 0.837158,0.5488 0.326694,0.3351 0.345009,0.35919 0.49971,0.65939 0.17543,0.34042 0.162859,0.30292 0.249598,0.74208 0.08276,0.41902 0.07092,0.79712 -0.03721,1.19889 -0.106495,0.3957 -0.443817,0.92239 -0.791168,1.23558 -0.220591,0.19891 -0.713412,0.45785 -1.052131,0.55242 -0.20891,0.0584 -0.981234,0.11536 -1.022676,0.0755 l 5.3e-4,5.3e-4 c -0.0085,-0.008 -0.08726,-0.0269 -0.175184,-0.0419 -0.08793,-0.0149 -0.615669,-0.17589 -1.172538,-0.3576 -0.556866,-0.1817 -1.024562,-0.33009 -1.039212,-0.32917 -0.01463,0 -0.0503,-0.0169 -0.07958,-0.0398 -0.02929,-0.023 -0.14941,-0.074 -0.266649,-0.11317 -0.117229,-0.0392 -0.225124,-0.0754 -0.239779,-0.0806 -0.01463,-0.005 -0.07568,-0.0261 -0.135909,-0.046 -0.06024,-0.02 -0.551838,-0.21536 -1.09244,-0.4346 -0.540605,-0.21923 -1.007325,-0.40454 -1.036627,-0.41135 -0.02929,-0.007 -0.07714,-0.0269 -0.106455,-0.045 -0.02929,-0.018 -0.413028,-0.1933 -0.85266,-0.38964 -1.591053,-0.71056 -3.573727,-1.75004 -5.102532,-2.67529 -0.417438,-0.25262 -0.806958,-0.48566 -0.865579,-0.51779 -0.05861,-0.032 -0.218879,-0.13628 -0.356052,-0.23152 -0.137166,-0.0952 -0.275085,-0.17311 -0.306441,-0.17311 -0.03134,0 -0.05685,-0.0238 -0.05685,-0.0532 0,-0.0293 -0.03611,-0.0537 -0.0801,-0.0537 -0.04399,0 -0.0801,-0.0238 -0.0801,-0.0532 0,-0.0293 -0.03558,-0.0532 -0.07958,-0.0532 -0.04399,0 -0.0801,-0.0239 -0.0801,-0.0532 0,-0.0294 -0.0361,-0.0532 -0.0801,-0.0532 -0.04399,0 -0.07958,-0.0238 -0.07958,-0.0532 0,-0.0293 -0.0361,-0.0532 -0.0801,-0.0532 -0.04399,0 -0.0801,-0.0238 -0.0801,-0.0532 0,-0.0293 -0.03558,-0.0532 -0.07958,-0.0532 -0.04399,0 -0.08038,-0.0183 -0.08062,-0.0403 0,-0.022 -0.150394,-0.13533 -0.333314,-0.25218 -0.182925,-0.11687 -0.392118,-0.267 -0.465087,-0.33332 -0.07296,-0.0663 -0.160845,-0.1204 -0.195337,-0.1204 -0.03451,0 -0.07083,-0.0182 -0.08062,-0.0403 -0.0098,-0.0221 -0.173303,-0.15356 -0.363803,-0.29249 -0.399198,-0.29114 -0.558924,-0.41282 -0.66404,-0.50643 -0.04115,-0.0367 -0.08842,-0.0667 -0.105421,-0.0667 -0.01704,0 -0.0969,-0.0573 -0.177249,-0.12712 -0.08034,-0.0697 -0.421556,-0.34557 -0.758611,-0.6134 -0.33705,-0.26783 -0.649018,-0.51779 -0.692981,-0.55501 -0.594101,-0.50311 -1.301342,-1.11741 -1.491898,-1.29604 -0.131892,-0.12364 -0.334626,-0.30463 -0.45062,-0.40205 -0.269785,-0.22655 -2.637007,-2.58687 -2.987413,-2.97862 -0.145976,-0.16322 -0.436131,-0.48689 -0.644406,-0.71934 -0.92837,-1.0362 -2.032188,-2.39417 -2.920235,-3.59306 -0.314796,-0.42499 -0.602655,-0.81067 -0.639755,-0.8568 -0.03711,-0.0461 -0.112442,-0.16011 -0.167431,-0.25321 -0.05497,-0.0931 -0.118607,-0.16898 -0.141594,-0.16898 -0.02297,0 -0.04186,-0.0252 -0.04186,-0.0558 0,-0.0306 -0.02564,-0.0845 -0.05685,-0.11989 -0.03118,-0.0354 -0.349644,-0.50785 -0.707967,-1.05006 -0.594566,-0.899697 -0.765249,-1.171236 -1.148765,-1.830896 -0.07056,-0.12133 -0.188793,-0.316851 -0.263033,-0.43408 -0.07424,-0.11724 -0.205121,-0.344713 -0.290938,-0.505913 -0.08582,-0.1612 -0.18142,-0.324413 -0.211876,-0.362251 -0.03045,-0.0379 -0.107469,-0.169678 -0.171564,-0.293005 -0.06409,-0.123344 -0.195138,-0.367776 -0.290938,-0.543637 -0.21059,-0.386519 -1.440739,-2.833714 -1.440739,-2.865975 0,-0.01249 -0.112413,-0.260315 -0.249597,-0.550354 -0.137197,-0.290042 -0.25486,-0.551027 -0.261485,-0.580327 -0.0066,-0.0293 -0.07824,-0.197244 -0.159163,-0.373104 -0.08094,-0.17585 -0.152037,-0.343795 -0.158128,-0.373103 -0.0061,-0.0293 -0.06007,-0.161107 -0.119891,-0.293007 -0.05982,-0.13189 -0.218802,-0.527823 -0.353467,-0.879531 -0.13467,-0.351713 -0.268682,-0.680849 -0.297656,-0.731739 -0.02896,-0.0508 -0.05271,-0.115343 -0.05271,-0.143145 0,-0.0278 -0.02783,-0.118004 -0.06201,-0.200504 -0.03417,-0.0825 -0.06632,-0.162084 -0.07131,-0.176734 -0.005,-0.01461 -0.02262,-0.06244 -0.03927,-0.106452 -0.09101,-0.240462 -0.11135,-0.299903 -0.124539,-0.364318 -0.008,-0.03897 -0.032,-0.110678 -0.05374,-0.159682 -0.0217,-0.04897 -0.0428,-0.101105 -0.04651,-0.115755 -0.01416,-0.05592 -0.412189,-1.256162 -0.441833,-1.332217 -0.01715,-0.04397 -0.03324,-0.09181 -0.03617,-0.106455 -0.0028,-0.01466 -0.02482,-0.05688 -0.04806,-0.09353 -0.02323,-0.0366 -0.02956,-0.06614 -0.01447,-0.06614 0.01508,0 -0.0097,-0.102291 -0.05478,-0.226862 -0.04498,-0.124558 -0.09279,-0.283435 -0.106452,-0.353465 -0.01363,-0.07007 -0.05859,-0.207944 -0.09973,-0.306443 -0.04117,-0.09849 -0.06465,-0.179316 -0.05219,-0.179316 0.01241,0 -0.0028,-0.06563 -0.03411,-0.146246 -0.03118,-0.08057 -0.06387,-0.182795 -0.07286,-0.226859 -0.009,-0.04414 -0.04693,-0.188097 -0.08423,-0.319876 -0.09068,-0.320164 -0.09307,-0.329676 -0.120922,-0.452686 -0.01331,-0.05871 -0.05465,-0.214971 -0.09198,-0.34675 -0.11108,-0.392244 -0.146045,-0.530204 -0.188103,-0.745691 -0.01431,-0.07328 -0.03795,-0.173273 -0.05271,-0.222207 -0.01476,-0.04897 -0.03773,-0.139031 -0.05116,-0.199988 -0.01341,-0.061 -0.03805,-0.164529 -0.05426,-0.230476 -0.01614,-0.06591 -0.03979,-0.167722 -0.05271,-0.226343 -0.02291,-0.103947 -0.0496,-0.22278 -0.104902,-0.466638 -0.01497,-0.06592 -0.03863,-0.17943 -0.05271,-0.252698 -0.01402,-0.07328 -0.03798,-0.193382 -0.05323,-0.26665 -0.01524,-0.07329 -0.03913,-0.193384 -0.05323,-0.266652 -0.01405,-0.07329 -0.03798,-0.192858 -0.05323,-0.266134 -0.01524,-0.07328 -0.03988,-0.199488 -0.05426,-0.280085 -0.01431,-0.08057 -0.03782,-0.212408 -0.05219,-0.293005 -0.01437,-0.08057 -0.03848,-0.206301 -0.05374,-0.27957 -0.03795,-0.182139 -0.06814,-0.360119 -0.104389,-0.61495 -0.01685,-0.118411 -0.04163,-0.273243 -0.05529,-0.344164 -0.02545,-0.132218 -0.0732,-0.435647 -0.112654,-0.719336 -0.0122,-0.08793 -0.03393,-0.244166 -0.04857,-0.34675 -0.04338,-0.304615 -0.07424,-0.543277 -0.106455,-0.825788 -0.01669,-0.146537 -0.04364,-0.362326 -0.05994,-0.479558 -0.0163,-0.117239 -0.03719,-0.297399 -0.04651,-0.399976 -0.0093,-0.102581 -0.03391,-0.342275 -0.05426,-0.532783 -0.03895,-0.364069 -0.04188,-0.401831 -0.104905,-1.252119 -0.06802,-0.91752 -0.0716,-0.985343 -0.111619,-2.158011 -0.05576,-1.634 -0.03264,-3.665 0.05633,-4.956286 0.04859,-0.705297 0.09116,-1.273051 0.108003,-1.438672 0.0104,-0.102582 0.03388,-0.366191 0.05219,-0.58601 0.01836,-0.219818 0.04319,-0.459507 0.05478,-0.532783 0.02884,-0.182692 0.0693,-0.503079 0.108003,-0.852662 0.01786,-0.161198 0.04162,-0.353055 0.05271,-0.426331 0.01103,-0.07327 0.03508,-0.241216 0.05323,-0.373103 0.03428,-0.248933 0.165801,-1.080166 0.214974,-1.35909 0.201785,-1.144498 0.275209,-1.523659 0.455787,-2.34456 0.116049,-0.527558 0.319969,-1.378972 0.453202,-1.891874 0.133229,-0.512908 0.250558,-0.968375 0.260451,-1.012341 0.0099,-0.04399 0.04323,-0.145743 0.07441,-0.226343 0.03118,-0.08059 0.04704,-0.146762 0.03462,-0.146762 -0.01243,0 0.01455,-0.09008 0.06046,-0.199988 0.04593,-0.109908 0.08096,-0.205573 0.07752,-0.212908 -0.0033,-0.0073 -0.0047,-0.01955 -0.0026,-0.02687 0.0024,-0.0073 0.01236,-0.04909 0.02222,-0.09302 0.0099,-0.04399 0.05494,-0.181996 0.100254,-0.306959 0.04532,-0.124975 0.08658,-0.245078 0.09147,-0.266649 0.02408,-0.106365 0.04985,-0.187397 0.232027,-0.731737 0.107897,-0.322403 0.204896,-0.622149 0.215489,-0.66611 0.01061,-0.04399 0.0241,-0.0862 0.02998,-0.09354 0.0059,-0.0073 0.01696,-0.03739 0.02429,-0.06666 0.0073,-0.02929 0.01905,-0.06493 0.02635,-0.07958 0.0073,-0.01463 0.0186,-0.0447 0.02479,-0.06666 0.0062,-0.02196 0.02574,-0.07592 0.04393,-0.119888 0.04532,-0.109593 0.465283,-1.23975 0.48524,-1.305864 0.03034,-0.1005 0.0972,-0.26679 0.197922,-0.492477 0.05547,-0.124243 0.100769,-0.25717 0.100769,-0.295587 0,-0.03844 0.02548,-0.09527 0.05684,-0.126609 0.03134,-0.03134 0.06354,-0.09028 0.07131,-0.130741 0.0077,-0.04049 0.04544,-0.14565 0.08372,-0.233577 0.03828,-0.08793 0.104529,-0.243652 0.147278,-0.346234 0.04276,-0.102578 0.123081,-0.288329 0.1788,-0.412892 0.05572,-0.124561 0.14669,-0.328639 0.202054,-0.453203 0.365541,-0.822409 1.243526,-2.595721 1.682068,-3.39721 0.136308,-0.249124 0.284236,-0.524438 0.328663,-0.612365 0.04444,-0.08793 0.138091,-0.255873 0.208256,-0.373105 0.07016,-0.117236 0.180123,-0.309065 0.243914,-0.425812 0.0638,-0.116737 0.232188,-0.397973 0.374652,-0.625285 0.14246,-0.227324 0.259416,-0.426971 0.259416,-0.443902 0,-0.01691 0.05953,-0.109606 0.132808,-0.205671 0.07327,-0.09607 0.133326,-0.189307 0.133326,-0.207221 0,-0.01794 0.09562,-0.171755 0.212392,-0.341583 0.616463,-0.896636 1.376905,-1.310664 2.334739,-1.271241 z m 64.223985,48.073035 c 0.62573,-0.004 0.77724,0.02543 1.2206,0.239778 0.41636,0.20124 0.94562,0.710518 1.14256,1.099159 0.26409,0.52115 0.37481,1.189572 0.27647,1.668632 -0.0151,0.0733 -0.0378,0.185557 -0.0506,0.249597 -0.0129,0.064 -0.047,0.159716 -0.0755,0.212908 -0.0285,0.0532 -0.0565,0.121057 -0.0625,0.150378 -0.006,0.0293 -0.0735,0.161116 -0.15038,0.293005 -0.16085,0.27622 -0.40515,0.531196 -0.96841,1.011306 -0.21982,0.18737 -0.42554,0.36621 -0.45734,0.397394 -0.0318,0.0312 -0.1247,0.10473 -0.20619,0.163296 -0.0815,0.0586 -0.19892,0.148018 -0.26148,0.198956 -0.0626,0.0509 -0.24602,0.194124 -0.40721,0.318325 -0.16121,0.12418 -0.3047,0.238879 -0.31936,0.254249 -0.0146,0.01529 -0.1826,0.13458 -0.37311,0.265099 -0.1905,0.130522 -0.37066,0.257268 -0.39997,0.281639 -0.14705,0.12233 -1.1652,0.786513 -1.20561,0.786513 -0.0257,0 -0.0465,0.02381 -0.0465,0.05323 0,0.0293 -0.0222,0.05323 -0.0496,0.05323 -0.0494,0 -0.59228,0.31785 -0.64337,0.376719 -0.0146,0.01691 -0.0625,0.04696 -0.10646,0.06667 -0.04398,0.01979 -0.199675,0.105968 -0.346222,0.191719 -0.35374,0.20686 -3.245895,1.671003 -3.267501,1.654162 -0.0092,-0.008 -0.153313,0.04739 -0.319879,0.121439 -0.166566,0.0741 -0.41071,0.176355 -0.542602,0.226855 -0.131887,0.0505 -0.299831,0.11658 -0.373105,0.14728 -0.07327,0.0307 -0.157244,0.0623 -0.18655,0.0698 -0.05226,0.0136 -0.721873,0.26177 -0.879017,0.32608 -0.04399,0.0179 -0.111964,0.0395 -0.150894,0.0475 -0.03893,0.008 -0.110681,0.0319 -0.159682,0.0532 -0.04899,0.0213 -0.135406,0.0475 -0.191719,0.0584 -0.05632,0.0108 -0.134176,0.0463 -0.173115,0.0786 -0.03895,0.0323 -0.0708,0.0451 -0.0708,0.0284 0,-0.0168 -0.137914,0.0178 -0.306443,0.077 -0.168518,0.0592 -0.36412,0.11892 -0.434597,0.13281 -0.07048,0.014 -0.172257,0.049 -0.226343,0.078 -0.05408,0.029 -0.09819,0.0402 -0.09819,0.0253 0,-0.0149 -0.06616,-0.003 -0.146759,0.0295 -0.08061,0.0312 -0.182388,0.0641 -0.226343,0.0734 -0.04399,0.009 -0.235828,0.0576 -0.426331,0.10749 -0.190513,0.0499 -0.39991,0.10052 -0.465087,0.11265 -0.06518,0.0121 -0.178663,0.0449 -0.252698,0.0729 -0.07404,0.0282 -0.134877,0.0418 -0.134877,0.03 0,-0.0119 -0.07786,0.003 -0.173114,0.0289 -0.09525,0.028 -0.257091,0.0639 -0.359669,0.0796 -0.102582,0.0157 -0.228532,0.0406 -0.27957,0.0553 -0.05103,0.0149 -0.15893,0.0381 -0.239778,0.0517 -0.08085,0.0135 -0.338617,0.059 -0.573091,0.10077 -0.234476,0.0418 -0.534217,0.0902 -0.666109,0.108 -0.131887,0.0177 -0.299834,0.0416 -0.373105,0.0527 -0.07328,0.011 -0.26284,0.0357 -0.421164,0.0548 -0.158319,0.0191 -0.32626,0.0419 -0.373102,0.0506 -0.07472,0.0138 -0.544404,0.0596 -1.123963,0.10955 -0.84631,0.0729 -3.638468,0.14661 -3.694348,0.0977 -0.0051,-0.004 -0.332973,-0.0242 -0.728639,-0.0444 -0.7288,-0.0372 -0.819494,-0.0441 -1.438672,-0.10284 -0.570942,-0.0541 -0.872172,-0.0873 -1.012857,-0.1111 -0.07327,-0.0125 -0.252917,-0.0383 -0.39946,-0.0574 -0.14655,-0.0194 -0.313592,-0.0439 -0.371035,-0.0548 -0.05743,-0.0108 -0.190146,-0.0324 -0.295072,-0.0481 -0.104931,-0.0157 -0.249854,-0.0402 -0.321945,-0.0543 -0.41307,-0.0804 -0.78495,-0.14795 -0.885216,-0.16071 -0.06303,-0.009 -0.158708,-0.0279 -0.212908,-0.0444 -0.0542,-0.0165 -0.170457,-0.0426 -0.258381,-0.0579 -0.08793,-0.0153 -0.238059,-0.0503 -0.333314,-0.078 -0.09525,-0.0278 -0.173117,-0.0394 -0.173117,-0.0258 0,0.0137 -0.04171,0.003 -0.09302,-0.0248 -0.05131,-0.0275 -0.165288,-0.0628 -0.253214,-0.0785 -0.08793,-0.0157 -0.238059,-0.0519 -0.333314,-0.0811 -0.09525,-0.0291 -0.173115,-0.0441 -0.173115,-0.0331 0,0.011 -0.0836,-0.0152 -0.186036,-0.0579 -0.102442,-0.0428 -0.192524,-0.0737 -0.199988,-0.0692 -0.0075,0.004 -0.157462,-0.0342 -0.333312,-0.0858 -0.175852,-0.0515 -0.343794,-0.0982 -0.373104,-0.10387 -0.276577,-0.0529 -1.165434,-0.43302 -1.318266,-0.56379 -0.515681,-0.44128 -0.849939,-0.957902 -0.982369,-1.518763 -0.08377,-0.35478 -0.04317,-1.115891 0.07493,-1.411801 0.01754,-0.044 0.03398,-0.09225 0.03669,-0.106968 0.0028,-0.01461 0.08556,-0.168646 0.18397,-0.342617 0.328827,-0.581311 0.804302,-0.954231 1.539439,-1.207162 0.405696,-0.139567 1.300766,-0.10868 1.608172,0.05581 0.06053,0.0324 0.109553,0.04737 0.109553,0.03307 0,-0.01421 0.08411,0.01019 0.186552,0.05219 0.102439,0.0428 0.198409,0.07655 0.213424,0.07545 0.01503,-7.94e-4 0.155707,0.03543 0.312642,0.08113 0.156938,0.0456 0.330692,0.0928 0.386025,0.104904 0.05536,0.01209 0.17863,0.04603 0.273883,0.07493 0.09526,0.0289 0.173117,0.04099 0.173117,0.02739 0,-0.0136 0.04171,-0.0027 0.09302,0.02532 0.05131,0.0275 0.177509,0.06362 0.280088,0.08061 0.102579,0.01691 0.264411,0.05323 0.359666,0.08113 0.09525,0.028 0.173117,0.04145 0.173117,0.02946 0,-0.01191 0.06141,0.0028 0.136425,0.02997 0.07501,0.0286 0.212931,0.06287 0.306443,0.07596 0.09351,0.01331 0.229171,0.03721 0.301273,0.05271 0.0721,0.01551 0.227817,0.04189 0.346231,0.05839 0.118406,0.01659 0.251113,0.04009 0.295074,0.05219 0.04399,0.01209 0.223472,0.03699 0.398941,0.05529 0.175469,0.01839 0.331666,0.04072 0.346747,0.05012 0.01508,0.01 0.218774,0.03388 0.453205,0.05478 0.234429,0.0208 0.473202,0.04676 0.530199,0.05736 0.519581,0.097 3.447674,0.136234 4.479314,0.05994 0.61287,-0.0454 0.986655,-0.07987 1.252119,-0.115236 0.102582,-0.0136 0.31836,-0.03925 0.479557,-0.05685 0.161198,-0.0177 0.329139,-0.04172 0.373105,-0.05323 0.04399,-0.0114 0.187989,-0.03511 0.319876,-0.05271 0.131895,-0.0176 0.2754,-0.04218 0.31936,-0.05478 0.04399,-0.01259 0.185423,-0.03661 0.314193,-0.05271 0.12878,-0.01601 0.249296,-0.03831 0.267684,-0.04961 0.01842,-0.0113 0.134744,-0.03544 0.258382,-0.05374 0.12365,-0.01849 0.554788,-0.116853 0.958082,-0.218591 0.403297,-0.101793 0.791263,-0.197786 0.862478,-0.213426 0.07122,-0.01569 0.149188,-0.04059 0.173117,-0.05529 0.02392,-0.01479 0.09511,-0.03689 0.158131,-0.04909 0.119584,-0.02299 0.440606,-0.11775 0.578258,-0.170532 0.04399,-0.01691 0.109156,-0.03704 0.144695,-0.04444 0.112144,-0.0236 0.78559,-0.249402 0.841293,-0.282152 0.02929,-0.0173 0.07779,-0.03519 0.108003,-0.03979 0.03024,-0.004 0.402235,-0.145233 0.826307,-0.312643 1.258054,-0.496604 3.27297,-1.517906 4.393012,-2.226738 0.242948,-0.15375 1.229815,-0.808226 1.279509,-0.848527 0.02973,-0.02421 0.270039,-0.203404 0.533818,-0.398425 0.263779,-0.19503 0.727852,-0.561031 1.030932,-0.812872 1.05598,-0.877488 1.15635,-0.949454 1.52704,-1.099156 0.31464,-0.127039 0.45202,-0.151564 0.87902,-0.154514 z m -49.670867,5.207434 c 0.608343,1.56e-4 1.220142,0.159178 1.758032,0.476975 0.186568,0.110289 0.742984,0.624064 1.522389,1.406115 0.675579,0.677878 1.53313,1.496118 1.905309,1.817975 5.626092,4.865609 12.93245,7.840119 21.038508,8.565369 1.485085,0.13286 3.412643,0.19561 4.848802,0.15813 1.14944,-0.0299 1.414782,-0.0222 1.721342,0.0501 1.222549,0.28859 2.214713,1.26588 2.522326,2.48409 0.115234,0.45639 0.113191,1.25654 -0.0047,1.70532 -0.230121,0.87558 -0.947153,1.76479 -1.734262,2.15129 -0.761336,0.37385 -0.725945,0.36964 -3.356901,0.38086 -1.304242,0.005 -2.491541,0.003 -2.638081,-0.008 v 5.2e-4 c -0.146547,-0.01 -0.649854,-0.0434 -1.118796,-0.0749 -9.569778,-0.64051 -18.581341,-4.18233 -25.419119,-9.9906 -1.497861,-1.27234 -3.360666,-3.1196 -3.839043,-3.807 -1.1098,-1.594725 -0.62362,-3.822099 1.056783,-4.840531 0.524071,-0.317619 1.129019,-0.476093 1.737363,-0.47594 z" />
  </g>
</svg>
