<?xml version="1.0" encoding="UTF-8" standalone="no"?>
<svg
   xmlns:dc="http://purl.org/dc/elements/1.1/"
   xmlns:cc="http://creativecommons.org/ns#"
   xmlns:rdf="http://www.w3.org/1999/02/22-rdf-syntax-ns#"
   xmlns:svg="http://www.w3.org/2000/svg"
   xmlns="http://www.w3.org/2000/svg"
   width="139.90407mm"
   height="147.20551mm"
   viewBox="0 0 139.90407 147.20551"
   version="1.1"
   id="svg5427">
  <defs
     id="defs5421">
    <mask
       id="mask-2-3-5-0"
       fill="#ffffff">
      <polygon
         id="use1885-0-6-4"
         points="0,106.00414 0,0.64969272 52.82253,0.64969272 52.82253,106.00414 "
         transform="scale(0.26458333)" />
    </mask>
  </defs>
  <metadata
     id="metadata5424">
    <rdf:RDF>
      <cc:Work
         rdf:about="">
        <dc:format>image/svg+xml</dc:format>
        <dc:type
           rdf:resource="http://purl.org/dc/dcmitype/StillImage" />
        <dc:title></dc:title>
      </cc:Work>
    </rdf:RDF>
  </metadata>
  <g
     id="layer7">
    <rect
       style="opacity:1;fill:#000000;fill-opacity:0.999943;stroke:#000000;stroke-width:0.155835;stroke-opacity:1"
       id="rect3866"
       width="139.90407"
       height="147.20551"
       x="4996.3389"
       y="948.70874" />
    <path
       d="m 5049.7191,1046.189 c -3.69,0 -6.6754,3.0188 -6.6754,6.7078 0,3.69 2.9854,6.7086 6.6754,6.7086 3.689,0 6.7078,-3.0186 6.7078,-6.7086 0,-3.689 -3.0188,-6.7078 -6.7078,-6.7078 z m -20.1252,-46.95816 h 6.7078 l 12.0749,25.45806 -9.9946,18.1457 h 51.5866 v -6.7087 h -40.2495 l 3.689,-6.7078 h 28.9798 l 16.6701,-30.18726 h -55.3431 l -3.1527,-6.70874 h -10.9683 z m 53.6659,46.95816 c -3.689,0 -6.6744,3.0188 -6.6744,6.7078 0,3.69 2.9854,6.7086 6.6744,6.7086 3.69,0 6.7088,-3.0186 6.7088,-6.7086 0,-3.689 -3.0188,-6.7078 -6.7088,-6.7078 z"
       fill="currentColor"
       id="path4395"
       style="opacity:1;fill:#ffffff;stroke-width:3.35415" />
    <path
       id="rect3866-2"
       style="opacity:1;fill:#000000;fill-opacity:0.999943;stroke:#000000;stroke-width:0.588983;stroke-opacity:1"
       d="M 0.29492188,0.29492188 V 556.66211 H 529.06641 V 0.29492188 Z M 133.45898,160.16406 h 41.45508 l 11.91602,25.35547 H 396 L 332.99609,299.61328 H 223.46484 l -13.9414,25.35156 h 152.12304 v 25.35547 H 166.67383 l 37.77539,-68.58203 -45.63867,-96.21875 H 133.45898 Z M 209.52344,363 c 13.94267,0 25.35156,11.40887 25.35156,25.35156 0,13.94646 -11.40889,25.35547 -25.35156,25.35547 -13.94646,0 -25.23047,-11.40901 -25.23047,-25.35547 0,-13.94269 11.28401,-25.35156 25.23047,-25.35156 z m 126.76758,0 c 13.94645,0 25.35546,11.40887 25.35546,25.35156 0,13.94646 -11.40901,25.35547 -25.35546,25.35547 -13.94268,0 -25.22657,-11.40901 -25.22657,-25.35547 0,-13.94269 11.28389,-25.35156 25.22657,-25.35156 z"
       transform="scale(0.26458333)" />
  </g>
</svg>
