<?xml version="1.0" encoding="UTF-8" standalone="no"?>
<svg
   xmlns:dc="http://purl.org/dc/elements/1.1/"
   xmlns:cc="http://creativecommons.org/ns#"
   xmlns:rdf="http://www.w3.org/1999/02/22-rdf-syntax-ns#"
   xmlns:svg="http://www.w3.org/2000/svg"
   xmlns="http://www.w3.org/2000/svg"
   width="139.90407mm"
   height="147.20551mm"
   viewBox="0 0 139.90407 147.20551"
   version="1.1"
   id="svg5427">
  <defs
     id="defs5421">
    <mask
       id="mask-2-3-5-0"
       fill="#ffffff">
      <polygon
         id="use1885-0-6-4"
         points="0,106.00414 0,0.64969272 52.82253,0.64969272 52.82253,106.00414 "
         transform="scale(0.26458333)" />
    </mask>
  </defs>
  <metadata
     id="metadata5424">
    <rdf:RDF>
      <cc:Work
         rdf:about="">
        <dc:format>image/svg+xml</dc:format>
        <dc:type
           rdf:resource="http://purl.org/dc/dcmitype/StillImage" />
        <dc:title></dc:title>
      </cc:Work>
    </rdf:RDF>
  </metadata>
  <g
     id="g7224"
     style="display:inline">
    <g
       aria-label="X"
       id="g7222"
       style="font-style:normal;font-variant:normal;font-weight:normal;font-stretch:normal;font-size:60.2427px;line-height:1.15;font-family:C059;-inkscape-font-specification:'C059, Normal';font-variant-ligatures:normal;font-variant-caps:normal;font-variant-numeric:normal;font-variant-east-asian:normal;word-spacing:0px;opacity:1;fill:#ffffff;fill-opacity:1;stroke:#ffffff;stroke-width:2.106;stroke-miterlimit:4;stroke-dasharray:none;stroke-opacity:1" />
    <path
       id="rect7235"
       style="opacity:1;fill:#000000;stroke-width:13.096"
       d="M 0,0 V 556.36719 H 528.77148 V 0 Z M 270.96094,96.875 A 176.19934,176.19934 0 0 1 447.16016,273.07422 176.19934,176.19934 0 0 1 270.96094,449.27344 176.19934,176.19934 0 0 1 94.761719,273.07422 176.19934,176.19934 0 0 1 270.96094,96.875 Z"
       transform="scale(0.26458333)" />
    <path
       id="circle3846"
       style="opacity:1;fill:#000000;fill-opacity:0.561982;stroke:#ffffff;stroke-width:7.20042;stroke-miterlimit:4;stroke-dasharray:none;stroke-opacity:0.279018"
       d="M 271.27148,96.46875 A 176.19934,176.19934 0 0 0 95.072266,272.66797 176.19934,176.19934 0 0 0 271.27148,448.86719 176.19934,176.19934 0 0 0 447.47266,272.66797 176.19934,176.19934 0 0 0 271.27148,96.46875 Z M 215,200.82422 h 113.81445 v 28.18164 h -39.97851 v 131.50976 h -33.75 V 229.00586 H 215 Z"
       transform="scale(0.26458333)" />
    <g
       aria-label="T"
       id="text3862"
       style="font-style:normal;font-variant:normal;font-weight:normal;font-stretch:normal;font-size:59.1865px;line-height:1.25;font-family:'Droid Sans';-inkscape-font-specification:'Droid Sans, Normal';font-variant-ligatures:normal;font-variant-caps:normal;font-variant-numeric:normal;font-variant-east-asian:normal;word-spacing:0px;opacity:1;fill:#ffffff;stroke-width:1.47965" />
    <circle
       style="opacity:1;fill:none;fill-opacity:0.27798;stroke:#000000;stroke-width:1.71886;stroke-miterlimit:4;stroke-dasharray:none;stroke-opacity:0.279018"
       id="circle3864-4"
       cx="71.842331"
       cy="72.058075"
       r="42.061604" />
  </g>
</svg>
