<?xml version="1.0" encoding="UTF-8" standalone="no"?>
<svg
   xmlns:dc="http://purl.org/dc/elements/1.1/"
   xmlns:cc="http://creativecommons.org/ns#"
   xmlns:rdf="http://www.w3.org/1999/02/22-rdf-syntax-ns#"
   xmlns:svg="http://www.w3.org/2000/svg"
   xmlns="http://www.w3.org/2000/svg"
   id="Layer_1"
   data-name="Layer 1"
   viewBox="0 0 434.99999 146.54247"
   version="1.1"
   width="435"
   height="146.54247">
  <metadata
     id="metadata3713">
    <rdf:RDF>
      <cc:Work
         rdf:about="">
        <dc:format>image/svg+xml</dc:format>
        <dc:type
           rdf:resource="http://purl.org/dc/dcmitype/StillImage" />
        <dc:title>blockstream_logo_rgb_white</dc:title>
      </cc:Work>
    </rdf:RDF>
  </metadata>
  <defs
     id="defs3612">
    <style
       id="style3610">.cls-1{fill:#fff;}.cls-2{fill:#00c3ff;}.cls-3{fill:#7ee0ff;}</style>
  </defs>
  <title
     id="title3614">blockstream_logo_rgb_white</title>
  <path
     class="cls-1"
     d="m 191.71,80.5 c 0,7.31 -5.82,9.57 -13.91,9.57 h -9.97 V 56.82 h 8.7 c 8.57,0 13.77,2.41 13.77,8.47 0,4.14 -3,6.5 -6.16,7.17 3.77,0.72 7.57,2.54 7.57,8.04 z m -17.56,-10 h 3.9 c 3.46,0 5.72,-1.54 5.72,-4.67 0,-3.37 -2.31,-4.33 -6.64,-4.33 h -3 z m 10.92,9.77 c 0,-4 -2.84,-5.35 -6.54,-5.35 h -4.38 v 10.4 h 3.68 c 4.21,-0.01 7.24,-0.88 7.24,-5.06 z"
     id="path3616"
     style="fill:#000000" />
  <path
     class="cls-1"
     d="m 204.39,85.84 a 5,5 0 0 0 1.45,-0.24 l 1.29,4.33 a 11.61,11.61 0 0 1 -4.37,0.86 c -3.8,0 -6,-2.26 -6,-6.49 V 54.42 l 6.16,-0.68 v 30.12 c 0.03,1.4 0.46,1.98 1.47,1.98 z"
     id="path3618"
     style="fill:#000000" />
  <path
     class="cls-1"
     d="m 233.83,77.32 c 0,8 -4.47,13.47 -12,13.47 -7.53,0 -12,-5.1 -12,-13.47 0,-8 4.48,-13.42 12,-13.42 7.52,0 12,5.1 12,13.42 z m -17.46,0 c 0,6.11 1.87,8.8 5.48,8.8 3.61,0 5.49,-2.74 5.49,-8.8 0,-6.06 -1.88,-8.76 -5.44,-8.76 -3.56,0 -5.57,2.75 -5.57,8.76 z"
     id="path3620"
     style="fill:#000000" />
  <path
     class="cls-1"
     d="m 257.22,66.88 -2.79,3.75 a 7.72,7.72 0 0 0 -5.1,-1.88 c -3.56,0 -5.73,2.6 -5.73,8.71 0,6.11 2.26,8.33 5.73,8.33 a 7.73,7.73 0 0 0 5.05,-2 l 2.84,4 a 12.59,12.59 0 0 1 -8.23,2.93 c -7.36,0 -11.93,-5.1 -11.93,-13.23 0,-8.13 4.57,-13.59 11.88,-13.59 a 11.86,11.86 0 0 1 8.28,2.98 z"
     id="path3622"
     style="fill:#000000" />
  <path
     class="cls-1"
     d="M 261.45,90.07 V 54.42 l 6.16,-0.68 v 36.33 z m 22.23,0 h -7.07 l -8.78,-13.91 8.52,-11.54 h 6.48 l -8.47,11.21 z"
     id="path3624"
     style="fill:#000000" />
  <path
     class="cls-1"
     d="m 305.36,66.93 -2.4,3.7 a 11,11 0 0 0 -6.26,-2.16 c -2.6,0 -4,1 -4,2.55 0,1.55 1,2.45 5.34,3.65 5.2,1.4 8.13,3.52 8.13,8 0,5.29 -4.91,8.08 -10.73,8.08 a 14.87,14.87 0 0 1 -10.15,-3.61 l 3.13,-3.51 a 11,11 0 0 0 6.83,2.55 c 2.79,0 4.57,-1.2 4.57,-3 0,-2.22 -1,-2.89 -5.77,-4.24 -5.25,-1.44 -7.56,-3.94 -7.56,-7.69 0,-4.24 3.9,-7.41 9.82,-7.41 a 14.28,14.28 0 0 1 9.05,3.09 z"
     id="path3626"
     style="fill:#000000" />
  <path
     class="cls-1"
     d="m 320.19,90.79 c -5,-0.05 -7.65,-2.88 -7.65,-8.32 V 69 h -4 v -4.38 h 4 V 59 l 6.15,-0.72 v 6.35 h 5.92 L 323.99,69 h -5.3 v 13.28 c 0,2.51 0.82,3.52 2.7,3.52 a 5.68,5.68 0 0 0 3,-1 l 2.16,4 a 11.08,11.08 0 0 1 -6.36,1.99 z"
     id="path3628"
     style="fill:#000000" />
  <path
     class="cls-1"
     d="m 345.4,64.28 -1.06,6 a 8.23,8.23 0 0 0 -2.26,-0.29 c -3.08,0 -4.67,2.26 -5.63,6.54 V 90.1 h -6.16 V 64.62 h 5.34 l 0.58,5 c 1.2,-3.65 3.66,-5.68 6.64,-5.68 a 8.88,8.88 0 0 1 2.55,0.34 z"
     id="path3630"
     style="fill:#000000" />
  <path
     class="cls-1"
     d="m 369.77,79.24 h -15.94 c 0.43,5.2 2.89,6.88 6.26,6.88 a 10.59,10.59 0 0 0 6.35,-2.26 l 2.55,3.51 a 14.63,14.63 0 0 1 -9.44,3.42 c -7.89,0 -12.12,-5.24 -12.12,-13.28 0,-7.75 4.09,-13.61 11.31,-13.61 7.22,0 11.21,4.81 11.21,12.84 -0.03,0.82 -0.12,1.83 -0.18,2.5 z M 363.83,75 c 0,-4.18 -1.49,-6.69 -5,-6.69 -2.89,0 -4.71,1.93 -5,7 h 10 z"
     id="path3632"
     style="fill:#000000" />
  <path
     class="cls-1"
     d="m 396.21,86.61 -1.3,4.08 c -2.79,-0.24 -4.62,-1.25 -5.63,-3.7 a 8.67,8.67 0 0 1 -7.6,3.8 c -5.1,0 -8.23,-3.22 -8.23,-7.84 0,-5.53 4.19,-8.52 11.6,-8.52 h 3.18 V 73 c 0,-3.32 -1.5,-4.43 -4.77,-4.43 a 22.69,22.69 0 0 0 -6.74,1.35 l -1.44,-4.19 a 26.32,26.32 0 0 1 9.24,-1.82 c 6.79,0 9.77,3.12 9.77,8.75 v 10.69 c 0,2.05 0.67,2.77 1.92,3.26 z m -8,-3.42 V 78 h -2.56 c -4,0 -6,1.44 -6,4.43 0,2.45 1.25,3.85 3.61,3.85 a 5.46,5.46 0 0 0 4.97,-3.09 z"
     id="path3634"
     style="fill:#000000" />
  <path
     class="cls-1"
     d="m 435,71.64 v 18.43 h -6.17 V 72.6 c 0,-3.17 -1.25,-4.09 -2.79,-4.09 -2.12,0 -3.42,1.49 -4.81,3.85 v 17.71 h -6.16 V 72.6 c 0,-3.17 -1.3,-4.09 -2.79,-4.09 -2.17,0 -3.47,1.49 -4.86,3.85 v 17.71 h -6.16 V 64.62 h 5.34 l 0.48,3.32 a 8.64,8.64 0 0 1 7.36,-4 6.2,6.2 0 0 1 6.16,4.28 c 1.93,-2.65 4.28,-4.28 7.65,-4.28 4.05,-0.04 6.75,2.89 6.75,7.7 z"
     id="path3636"
     style="fill:#000000" />
  <path
     class="cls-2"
     d="m 117.73,40.59 a 57.3,57.3 0 0 1 7.1,13.46 L 131.14,52 A 64.52,64.52 0 0 0 123,36.6 Z"
     id="path3638" />
  <path
     class="cls-2"
     d="m 74.47,10.68 c -1.69,-0.07 -3.38,-0.06 -5.07,0 l 0.48,6.6 a 60.82,60.82 0 0 1 7.63,0.21 59.5,59.5 0 0 1 7.54,1.21 l 1.69,-6.4 A 65.71,65.71 0 0 0 78.13,10.91 C 76.91,10.8 75.68,10.72 74.47,10.68 Z"
     id="path3640" />
  <path
     class="cls-2"
     d="m 12.58,102.41 a 65.69,65.69 0 0 1 -5.65,-17 L 0,86.5 a 72.8,72.8 0 0 0 6.37,19.21 z"
     id="path3642" />
  <path
     class="cls-2"
     d="m 8.99,35.75 6.14,3.41 a 65.74,65.74 0 0 1 11.17,-14 L 21.6,19.95 A 73.26,73.26 0 0 0 8.99,35.75 Z"
     id="path3644" />
  <path
     class="cls-2"
     d="m 0.3,58.34 6.91,1.22 a 65.62,65.62 0 0 1 6,-16.91 L 7.07,39.25 A 73,73 0 0 0 0.3,58.34 Z"
     id="path3646" />
  <path
     class="cls-2"
     d="m 45.29,4.76 2.76,6.45 A 65.68,65.68 0 0 1 65.48,7 L 64.98,0 A 72.29,72.29 0 0 0 45.29,4.76 Z"
     id="path3648" />
  <path
     class="cls-2"
     d="m 24.56,17.24 4.7,5.21 A 66.19,66.19 0 0 1 44.37,12.78 L 41.62,6.33 A 73.13,73.13 0 0 0 24.56,17.24 Z"
     id="path3650" />
  <path
     class="cls-2"
     d="m 128.57,120.43 -5.49,-4.37 a 66.23,66.23 0 0 1 -13.33,12 l 3.78,5.94 a 72.9,72.9 0 0 0 15.04,-13.57 z"
     id="path3652" />
  <path
     class="cls-2"
     d="m 43.14,132.92 a 66,66 0 0 1 -14.91,-10 l -4.8,5.12 a 73,73 0 0 0 16.83,11.25 z"
     id="path3654" />
  <path
     class="cls-2"
     d="m 145.48,80 a 73,73 0 0 0 -2.8,-28.08 L 136,54.14 a 66.86,66.86 0 0 1 -0.39,39.38 l 6.61,2.35 A 73.69,73.69 0 0 0 145.48,80 Z"
     id="path3656" />
  <path
     class="cls-2"
     d="m 104.54,126.7 -3.56,-5.57 a 57.76,57.76 0 0 1 -14,6 l 1.56,6.43 a 64.51,64.51 0 0 0 16,-6.86 z"
     id="path3658" />
  <path
     class="cls-2"
     d="M 17.61,80.16 A 59.44,59.44 0 0 1 17.45,67.72 c 0.09,-1 0.21,-1.88 0.34,-2.8 l -6.51,-1.16 c -0.16,1.1 -0.3,2.21 -0.41,3.35 a 64.82,64.82 0 0 0 0.21,14.07 z"
     id="path3660" />
  <path
     class="cls-2"
     d="m 91.19,9.39 a 65.47,65.47 0 0 1 16.36,7.37 l 3.9,-5.84 A 72.41,72.41 0 0 0 92.98,2.61 Z"
     id="path3662" />
  <path
     class="cls-2"
     d="m 62.65,146 0.66,-7 A 66,66 0 0 1 46.83,134.56 L 43.9,141 a 73.26,73.26 0 0 0 18.75,5 z"
     id="path3664" />
  <path
     class="cls-2"
     d="m 28.29,117.55 4.54,-4.82 A 58.32,58.32 0 0 1 23.6,100.61 l -5.87,3.09 a 64.87,64.87 0 0 0 10.56,13.85 z"
     id="path3666" />
  <path
     class="cls-2"
     d="M 114.77,13.14 110.83,19 A 66.48,66.48 0 0 1 123.9,31.28 L 129.52,27 A 73,73 0 0 0 114.77,13.14 Z"
     id="path3668" />
  <path
     class="cls-2"
     d="m 121.49,110.45 a 63.91,63.91 0 0 0 8.44,-15.22 L 123.7,93 a 58,58 0 0 1 -7.39,13.32 z"
     id="path3670" />
  <path
     class="cls-3"
     d="m 126.68,57.19 -6.27,2.08 a 49.7,49.7 0 0 1 1.73,18.51 50.32,50.32 0 0 1 -2,10.21 l 6.24,2.21 a 57.7,57.7 0 0 0 2.38,-11.8 56.27,56.27 0 0 0 -2.08,-21.21 z"
     id="path3672" />
  <path
     class="cls-3"
     d="m 64.22,129.24 0.61,-6.59 a 50.13,50.13 0 0 1 -11.29,-3.06 l -2.72,6 a 56.39,56.39 0 0 0 13.4,3.65 z"
     id="path3674" />
  <path
     class="cls-3"
     d="m 109.63,59.11 5.92,-2 A 48.81,48.81 0 0 0 109.93,46.5 l -4.95,3.77 a 41.71,41.71 0 0 1 4.65,8.84 z"
     id="path3676" />
  <path
     class="cls-3"
     d="m 73.83,27.08 c -1.09,0 -2.18,0 -3.26,0 l 0.45,6.2 a 41.16,41.16 0 0 1 9.91,0.92 l 1.59,-6 a 48.64,48.64 0 0 0 -5.94,-0.93 c -0.89,-0.09 -1.82,-0.15 -2.75,-0.19 z"
     id="path3678" />
  <path
     class="cls-3"
     d="m 23.7,43.91 5.79,3.21 a 49.8,49.8 0 0 1 7.8,-9.8 l -4.46,-4.91 a 55.87,55.87 0 0 0 -9.13,11.5 z"
     id="path3680" />
  <path
     class="cls-3"
     d="m 87,25.27 a 49.35,49.35 0 0 1 11.43,5.14 l 3.67,-5.5 a 56.17,56.17 0 0 0 -13.41,-6 z"
     id="path3682" />
  <path
     class="cls-3"
     d="m 110.83,41.22 5.26,-4 A 56,56 0 0 0 105.38,27.13 l -3.67,5.5 a 49.87,49.87 0 0 1 9.12,8.59 z"
     id="path3684" />
  <path
     class="cls-3"
     d="m 103.75,96.36 4.88,3.87 a 48.07,48.07 0 0 0 5.82,-10.5 l -5.87,-2.08 a 42.12,42.12 0 0 1 -4.83,8.71 z"
     id="path3686" />
  <path
     class="cls-3"
     d="m 39.48,111 -4.53,4.82 A 56.15,56.15 0 0 0 47.18,124 l 2.71,-6 a 49.41,49.41 0 0 1 -10.41,-7 z"
     id="path3688" />
  <path
     class="cls-3"
     d="m 33.48,77.67 a 42.7,42.7 0 0 1 -0.07,-8.46 c 0.05,-0.49 0.11,-1 0.17,-1.49 l -6.13,-1.09 c -0.09,0.66 -0.17,1.33 -0.23,2 a 49.23,49.23 0 0 0 0.1,10 z"
     id="path3690" />
  <path
     class="cls-3"
     d="m 23.15,82.85 -6.54,1 a 56.43,56.43 0 0 0 4.64,14 L 27.1,94.76 A 50,50 0 0 1 23.15,82.85 Z"
     id="path3692" />
  <path
     class="cls-3"
     d="m 100.91,114.24 3.56,5.57 A 56.31,56.31 0 0 0 115.4,110 l -5.18,-4.11 a 49.61,49.61 0 0 1 -9.31,8.35 z"
     id="path3694" />
  <path
     class="cls-3"
     d="m 27.55,50.61 -5.78,-3.2 a 55.88,55.88 0 0 0 -4.94,13.87 l 6.51,1.15 a 49.65,49.65 0 0 1 4.21,-11.82 z"
     id="path3696" />
  <path
     class="cls-3"
     d="m 83.19,111.52 1.46,6 a 48.07,48.07 0 0 0 11.05,-4.71 l -3.36,-5.25 a 42,42 0 0 1 -9.15,3.96 z"
     id="path3698" />
  <path
     class="cls-3"
     d="M 37.76,93.12 32.26,96 a 47.92,47.92 0 0 0 7.27,9.55 l 4.3,-4.55 a 42.22,42.22 0 0 1 -6.07,-7.88 z"
     id="path3700" />
  <path
     class="cls-3"
     d="m 70.46,123.18 c -0.55,0 -1.1,-0.07 -1.66,-0.11 l -0.61,6.59 a 56.65,56.65 0 0 0 15.5,-1 l -1.56,-6.43 a 49.52,49.52 0 0 1 -11.67,0.95 z"
     id="path3702" />
  <path
     class="cls-3"
     d="m 35.83,29.73 4.43,4.91 a 50.18,50.18 0 0 1 10.57,-6.76 l -2.6,-6.08 a 56.66,56.66 0 0 0 -12.4,7.93 z"
     id="path3704" />
  <path
     class="cls-3"
     d="m 51.89,20.23 2.6,6.09 a 49.7,49.7 0 0 1 12.18,-3 L 66.2,16.73 a 56.22,56.22 0 0 0 -14.31,3.5 z"
     id="path3706" />
  <path
     class="cls-2"
     d="M 68.6,146.5 A 83.25,83.25 0 0 0 87.21,145 l -1.46,-6.75 a 66.37,66.37 0 0 1 -16.17,1.33 c -0.87,0 -1.5,-0.11 -2.37,-0.18 l -0.61,7.07 a 17.53,17.53 0 0 0 2,0 z"
     id="path3708" />
</svg>
